<?xml version="1.0" standalone="no"?>
<!DOCTYPE svg PUBLIC "-//W3C//DTD SVG 1.1//EN" "http://www.w3.org/Graphics/SVG/1.1/DTD/svg11.dtd">
<svg xmlns="http://www.w3.org/2000/svg">
<metadata>Generated by Fontastic.me</metadata>
<defs>
<font id="usmart-pic" horiz-adv-x="512">
<font-face font-family="usmart-pic" units-per-em="512" ascent="480" descent="-32"/>
<missing-glyph horiz-adv-x="512" />

<glyph glyph-name="academy-01" unicode="&#97;" d="M288 416c0-15-12-27-26-27-15 0-26 12-26 27 0 14 11 26 26 26 14 0 26-12 26-26m-64 0c0 20 17 37 38 37 21 0 38-17 38-37 0-21-17-38-38-38-21 0-38 17-38 38z m272-400l0 36-468 0 0-36z m-436 48l404 0 0 36-404 0z m442 0c3 0 6-3 6-6l0-48c0-3-3-6-6-6l-480 0c-3 0-6 3-6 6l0 48c0 3 3 6 6 6l26 0 0 42c0 3 3 6 6 6l416 0c3 0 6-3 6-6l0-42z m-459 288l438 0-219 132z m464-7c0-3-3-5-5-5l-480 0c-3 0-5 2-6 5 0 2 1 5 3 6l240 144c2 1 4 1 6 0l240-144c2-1 3-4 2-6z m-271-185l52 0 0 84-52 0z m-6 96l64 0c3 0 6-3 6-6l0-96c0-3-3-6-6-6l-64 0c-3 0-6 3-6 6l0 96c0 3 3 6 6 6z m150-96l52 0 0 84-52 0z m-6 96l64 0c3 0 6-3 6-6l0-96c0-3-3-6-6-6l-64 0c-3 0-6 3-6 6l0 96c0 3 3 6 6 6z m-282-96l52 0 0 84-52 0z m-6 96l64 0c3 0 6-3 6-6l0-96c0-3-3-6-6-6l-64 0c-3 0-6 3-6 6l0 96c0 3 3 6 6 6z m-32 36l0 12 416 0 0-12z"/>
<glyph glyph-name="academy-02" unicode="&#98;" d="M262 412c19 0 34-15 34-34 0-19-15-34-34-34-19 0-34 15-34 34 0 19 15 34 34 34m0-80c-25 0-46 21-46 46 0 25 21 46 46 46 25 0 46-21 46-46 0-25-21-46-46-46z m-150-194l0 128 12 0 0-128z m-84-86l0-36 468 0 0 36z m32 48l0-36 404 0 0 36z m16 12l84 0 0 180-84 0z m186 371l-224-179 447 0z m-90-371l180 0 0 180-180 0z m192 0l84 0 0 180-84 0z m-342-108c-3 0-6 3-6 6l0 48c0 3 3 6 6 6l26 0 0 42c0 3 3 6 6 6l10 0 0 180-42 0c-3 0-5 2-6 4 0 3 0 5 2 7l240 192c2 1 5 1 7 0l240-192c2-2 3-4 2-7-1-2-3-4-5-4l-42 0 0-180 10 0c3 0 6-3 6-6l0-42 26 0c3 0 6-3 6-6l0-48c0-3-3-6-6-6z m378 134l0 128 12 0 0-128z"/>
<glyph glyph-name="adding" unicode="&#99;" d="M58 58l-42 0 0 12 42 0 0 42 12 0 0-42 42 0 0-12-42 0 0-42-12 0z m384 384l-42 0 0 12 42 0 0 42 12 0 0-42 42 0 0-12-42 0 0-42-12 0z m-372-282l-12 0 0 256c0 21 17 38 38 38l256 0 0-12-256 0c-15 0-26-12-26-26z m346-102l-256 0 0 12 256 0c14 0 26 11 26 26l0 256 12 0 0-256c0-21-17-38-38-38z"/>
<glyph glyph-name="air-conditioner" unicode="&#100;" d="M496 266c0-14-12-26-26-26l-416 0c-15 0-26 12-26 26l0 218 468 0z m6 230l-480 0c-3 0-6-3-6-6l0-224c0-21 17-38 38-38l416 0c21 0 38 17 38 38l0 224c0 3-3 6-6 6z m-384-294c0 3-2 6-5 6-4 0-6-3-6-6 0-10-4-14-10-20-5-6-12-14-12-28 0-14 7-21 12-28 6-5 10-10 10-20 0-9-4-14-10-20-5-6-12-13-12-28 0-14 7-21 12-28 6-5 10-10 10-20 0-3 2-6 6-6 3 0 5 3 5 6 0 14-6 22-12 28-5 6-9 10-9 20 0 10 4 15 9 20 6 7 12 14 12 28 0 15-6 22-12 28-5 6-9 11-9 20 0 10 4 15 9 20 6 7 12 14 12 28m112 0c0 3-2 6-5 6-4 0-6-3-6-6 0-10-4-14-10-20-5-6-12-14-12-28 0-14 7-21 12-28 6-5 10-10 10-20 0-9-4-14-10-20-5-6-12-13-12-28 0-14 7-21 12-28 6-5 10-10 10-20 0-3 2-6 6-6 3 0 5 3 5 6 0 14-6 22-12 28-5 6-9 10-9 20 0 10 4 15 9 20 6 7 12 14 12 28 0 15-6 22-12 28-5 6-9 11-9 20 0 10 4 15 9 20 6 7 12 14 12 28m112 0c0 3-2 6-5 6-4 0-6-3-6-6 0-10-4-14-10-20-5-6-12-14-12-28 0-14 7-21 12-28 6-5 10-10 10-20 0-9-4-14-10-20-5-6-12-13-12-28 0-14 7-21 12-28 6-5 10-10 10-20 0-3 2-6 6-6 3 0 5 3 5 6 0 14-6 22-12 28-5 6-9 10-9 20 0 10 4 15 9 20 6 7 12 14 12 28 0 15-6 22-12 28-5 6-9 11-9 20 0 10 4 15 9 20 6 7 12 14 12 28m112 0c0 3-2 6-5 6-4 0-6-3-6-6 0-10-4-14-10-20-5-6-12-14-12-28 0-14 7-21 12-28 6-5 10-10 10-20 0-9-4-14-10-20-5-6-12-13-12-28 0-14 7-21 12-28 6-5 10-10 10-20 0-3 2-6 6-6 3 0 5 3 5 6 0 14-6 22-12 28-5 6-9 10-9 20 0 10 4 15 9 20 6 7 12 14 12 28 0 15-6 22-12 28-5 6-9 11-9 20 0 10 4 15 9 20 6 7 12 14 12 28m-384 74l384 0c3 0 6 3 6 6 0 3-3 6-6 6l-384 0c-3 0-6-3-6-6 0-3 3-6 6-6m0 48l384 0c3 0 6 3 6 6 0 3-3 6-6 6l-384 0c-3 0-6-3-6-6 0-3 3-6 6-6m0 48l384 0c3 0 6 3 6 6 0 3-3 6-6 6l-384 0c-3 0-6-3-6-6 0-3 3-6 6-6m320 48l64 0c3 0 6 3 6 6 0 3-3 6-6 6l-64 0c-3 0-6-3-6-6 0-3 3-6 6-6"/>
<glyph glyph-name="airplane" unicode="&#101;" d="M176 307c0 0 0 0 0 0l0 39c0 3 3 6 6 6 3 0 6-3 6-6l0-29 6 5c3 2 6 2 8-1 2-2 2-6-1-8l-141-116 0-57 135 78c3 2 6 1 8-2 1-3 0-6-2-8l-144-83c-1 0-2-1-3-1-1 0-2 1-3 1-2 1-3 3-3 5l0 69c0 2 1 4 2 5l78 64c0 0 0 0 0 0l0 46c0 3 3 6 6 6 3 0 6-3 6-6l0-37z m220-46l77-60c2-1 3-3 3-4l0-67c0-2-2-4-3-5-2-1-4-1-6 0l-167 95 0-120 62-55c1-1 2-2 2-4l0-31c0-2-1-4-3-5-1-1-2-1-3-1-1 0-1 0-2 0l-94 32-94-32c-2 0-4 0-6 1-1 1-2 3-2 5l0 31c0 2 1 3 2 4l62 55 0 324c0 22 9 72 37 72 29 0 39-50 39-72l0-89 36-28 0 39c0 3 3 6 6 6 3 0 6-3 6-6l0-48 36-28 0 44c0 3 3 6 6 6 3 0 6-3 6-6z m-10-8c0 1 0 1 0 1l-96 74c-1 1-2 2-2 4l0 92c0 24-11 60-27 60-15 0-25-36-25-60l0-326c0-2-1-3-2-4l-62-56 0-20 88 29c1 1 1 1 2 1 0 0 1 0 2-1l88-29 0 20-62 56c-1 1-2 2-2 4l0 132c0 2 1 4 3 5 2 1 4 1 6 0l167-95 0 54z"/>
<glyph glyph-name="alert-01" unicode="&#102;" d="M273 130c0-8-7-16-16-16-9 0-16 8-16 16 0 9 7 16 16 16 9 0 16-7 16-16z m-241-74l451 0-226 391z m461-11l-471 0c-2 0-4 1-5 3-1 1-1 4 0 5l235 408c2 4 8 4 10 0l236-408c1-1 1-4 0-5-1-2-3-3-5-3z m-236 144c-3 0-5 2-5 5l0 160c0 4 2 6 5 6 4 0 6-2 6-6l0-160c0-3-2-5-6-5z"/>
<glyph glyph-name="alert-02" unicode="&#103;" d="M286 34c0-13-11-24-24-24-14 0-24 11-24 24 0 13 10 24 24 24 13 0 24-11 24-24z m-144 2c-1 0-2 1-3 1-76 44-123 126-123 213 0 136 110 246 246 246 135 0 246-110 246-246 0-87-48-169-124-213-2-1-6 0-7 2-2 3-1 7 2 8 72 42 117 120 117 203 0 129-105 234-234 234-129 0-234-105-234-234 0-83 44-161 117-203 3-1 4-5 2-8-1-1-3-3-5-3z m120 80c-3 0-6 3-6 6l0 288c0 3 3 6 6 6 3 0 6-3 6-6l0-288c0-3-3-6-6-6z"/>
<glyph glyph-name="all-weather" unicode="&#104;" d="M236 74l-27 0c0 0 0 0 0 0-2 0-3 1-4 1-2 2-2 5-1 7 0 0 0 1 0 1l37 64c2 2 5 3 8 2 3-2 4-5 2-8l-32-55 27 0c3 0 6-3 6-6 0-1-1-2-1-3l-37-64c-1-2-3-3-5-3-1 0-2 0-3 1-3 1-4 5-2 8z m90-18l-7-8c-1-1-3-1-4-1-2 0-3 0-4 1-3 3-3 6 0 9l7 7-7 7c-3 2-3 6 0 8 2 2 6 2 8 0l7-7 7 7c3 2 6 2 8 0 3-2 3-6 0-8l-7-7 7-7c3-3 3-6 0-9-1-1-2-1-4-1-1 0-3 0-4 1z m80 0l-7-8c-1-1-3-1-4-1-2 0-3 0-4 1-3 3-3 6 0 9l7 7-7 7c-3 2-3 6 0 8 2 2 6 2 8 0l7-7 7 7c3 2 6 2 8 0 3-2 3-6 0-8l-7-7 7-7c3-3 3-6 0-9-1-1-2-1-4-1-1 0-3 0-4 1z m-48 64l-7-8c-1-1-3-1-4-1-2 0-3 0-4 1-3 3-3 6 0 9l7 7-7 7c-3 2-3 6 0 8 2 2 6 2 8 0l7-7 7 7c3 2 6 2 8 0 3-2 3-6 0-8l-7-7 7-7c3-3 3-6 0-9-1-1-2-1-4-1-1 0-3 0-4 1z m80 0l-7-8c-1-1-3-1-4-1-2 0-3 0-4 1-3 3-3 6 0 9l7 7-7 7c-3 2-3 6 0 8 2 2 6 2 8 0l7-7 7 7c3 2 6 2 8 0 3-2 3-6 0-8l-7-7 7-7c3-3 3-6 0-9-1-1-2-1-4-1-1 0-3 0-4 1z m-362 210c-3 0-5 2-5 5 0 50 40 90 89 90 11 0 20 0 31-4 3-1 4-5 3-8-1-3-5-4-8-3-8 3-15 4-26 4-43 0-78-35-78-79 0-3-2-5-6-5z m84 114c-3 0-5 2-5 5l0 25c0 3 2 6 5 6 4 0 6-3 6-6l0-25c0-3-2-5-6-5z m-57-16c-2 0-3 1-4 3l-13 22c-1 3-1 6 2 8 3 1 7 0 8-2l12-22c2-3 1-6-2-8-1 0-2-1-3-1z m-41-41c-1 0-2 0-3 1l-22 12c-2 1-3 5-2 8 2 2 5 3 8 2l22-13c2-1 3-5 2-7-1-2-3-3-5-3z m155 41c0 0-1 1-2 1-3 2-4 5-3 8l13 22c1 2 5 3 8 2 2-2 3-5 2-8l-13-22c-1-2-3-3-5-3z m-171-98l-24 0c-3 0-6 2-6 5 0 4 3 6 6 6l24 0c4 0 6-2 6-6 0-3-2-5-6-5z m78-20c-36 0-64-29-64-64 0-36 28-64 64-64l294 0c43 0 78 35 78 78 0 43-35 78-78 78-8 0-17-2-25-4-3-1-6 0-7 3-17 44-60 73-107 73-60 0-109-45-115-104 0-2-1-3-3-4-2-1-4-1-5 0-10 5-21 8-32 8z m294-140l-294 0c-42 0-76 34-76 76 0 42 34 76 76 76 10 0 20-2 30-6 9 61 62 106 125 106 50 0 95-30 116-76 7 2 15 3 23 3 50 0 90-40 90-89 0-50-40-90-90-90z m-337-96c-1 0-2 0-3 1-3 1-4 5-2 8l37 64c2 2 5 3 8 2 3-2 4-5 2-8l-37-64c-1-2-3-3-5-3z m64 0c-1 0-2 0-3 1-3 1-4 5-2 8l37 64c2 2 5 3 8 2 3-2 4-5 2-8l-37-64c-1-2-3-3-5-3z"/>
<glyph glyph-name="americas" unicode="&#105;" d="M194 26l124 113-109 188c-1 3-1 5 1 7l85 93-35 57c-89 0-166-50-205-124l23-40 88 0c2 0 4-1 5-3l42-80c1-2 0-5-2-7l-54-45 30-68c1-2 1-4 0-6l-38-66c14-8 29-14 45-19z m80 458l33-55c1-2 1-5-1-7l-85-93 110-188c1-2 1-5-1-7l-123-111c17-5 36-7 55-7 116 0 213 85 231 196l-39 0c-2 0-4 2-5 3l-54 89c-1 2-1 4 0 6l50 86c-41 51-102 85-171 88z m-134-433l35 64-31 69c-1 2 0 5 2 7l54 45-38 72-87 0c-2 0-4 2-5 3l-21 37c-14-30-21-63-21-98 0-84 44-158 112-199z m312 335l-45-79 50-83 38 0c1 9 1 17 1 26 0 51-16 98-44 136z m-190-382c-136 0-246 111-246 246 0 136 110 246 246 246 135 0 246-110 246-246 0-135-111-246-246-246z"/>
<glyph glyph-name="analytics-01" unicode="&#106;" d="M12 16l0 88 138 138 108-108c2-2 6-2 8 0l214 214 0-332z m460 341l-210-211-108 108c-2 3-6 3-8 0l-134-134 0 237z m-460 11l468 0 0 116-468 0z m474 128l-480 0c-3 0-6-3-6-6l0-480c0-3 3-6 6-6l480 0c3 0 6 3 6 6l0 480c0 3-3 6-6 6z"/>
<glyph glyph-name="analytics-02" unicode="&#107;" d="M180 348l-37-64-10 5 44 76c1 2 3 3 5 3 3 0 5-2 5-4l16-48 38 65c1 2 3 3 5 3 2 0 4-1 5-3l31-67 55 91 10-6-61-100c-1-2-3-3-5-3-2 0-4 2-5 3l-31 67-39-67c-1-2-3-3-5-3-2 0-4 2-5 4z m-100-24l-68 0 0-228 74 0c3 0 6-3 6-6l0-74 148 0 0 149c-2 0-4 0-6 0-3 0-5 0-7 1-3 0-6 1-9 1-3 0-5 1-8 1-2 1-5 2-8 3-3 0-5 1-7 2-3 0-6 2-8 3-3 0-5 1-7 2-3 1-5 3-8 4-2 1-4 2-6 3-3 2-5 3-8 5-2 1-4 2-5 3-3 2-6 4-8 6-2 1-3 2-5 4-3 2-6 5-9 8-2 2-3 3-5 4-2 3-5 6-8 10-1 1-2 3-4 5-2 2-4 5-5 7-2 2-3 4-4 6-2 3-3 5-4 7-2 3-3 5-4 7-1 3-2 5-3 7-1 3-2 5-3 8-1 2-2 5-3 7-1 3-1 5-2 8-1 2-1 5-2 8-1 2-1 5-2 8 0 2 0 5-1 8 0 2 0 5 0 8-1 2-1 4-1 5z m166 160c-85 0-154-69-154-154 0-85 69-154 154-154 41 0 80 16 109 45 29 29 45 68 45 109 0 85-69 154-154 154z m-166-460l0 60-60 0z m2-18l-80 80c-1 1-2 3-2 4l0 240c0 3 3 6 6 6l74 0c3 89 76 160 166 160 91 0 166-74 166-166 0-42-16-82-45-113l123-123-8-8-123 123c-30-27-67-43-107-44l0-155c0-3-3-6-6-6l-160 0c-2 0-3 1-4 2z"/>
<glyph glyph-name="analytics-03" unicode="&#108;" d="M134 282c14 0 26-12 26-26 0-14-12-26-26-26-15 0-26 12-26 26 0 14 11 26 26 26z m141-131c8-5 13-14 13-23 0-14-12-26-26-26-15 0-26 12-26 26 0 14 11 26 26 26 5 0 9-1 13-3z m105 233c0 14 11 26 26 26 5 0 11-2 15-5 7-5 11-13 11-21 0-14-12-26-26-26-4 0-7 1-11 2-9 4-15 13-15 24z m-364 112l0-480c0-3 3-6 6-6l480 0 0 12-474 0 0 228 69 0c2-18 18-32 37-32 8 0 16 3 23 8l75-75c-5-7-8-14-8-23 0-21 17-38 38-38 21 0 38 17 38 38 0 11-6 22-14 29l110 191c3-1 6-2 10-2 19 0 34 14 37 32l59 0 0 12-59 0c-2 9-7 18-15 24-6 5-14 8-22 8-21 0-38-17-38-38 0-13 7-24 17-31l-109-190c-5 2-9 3-14 3-8 0-16-3-22-7l-75 75c4 7 7 14 7 22 0 21-17 38-38 38-19 0-35-14-37-32l-69 0 0 234z"/>
<glyph glyph-name="analytics-04" unicode="&#109;" d="M266 496l12 0 0-234 234 0 0-12-234 0 0-234-12 0 0 234-234 0 0 12 234 0z m134 0c9 0 16-7 16-16 0-9-7-16-16-16-9 0-16 7-16 16 0 9 7 16 16 16z m0-448c9 0 16-7 16-16 0-9-7-16-16-16-9 0-16 7-16 16 0 9 7 16 16 16z m-16 288c0 9 7 16 16 16 9 0 16-7 16-16 0-9-7-16-16-16-9 0-16 7-16 16z m16-176c9 0 16-7 16-16 0-9-7-16-16-16-9 0-16 7-16 16 0 9 7 16 16 16z m48-16c0 9 7 16 16 16 9 0 16-7 16-16 0-9-7-16-16-16-9 0-16 7-16 16z m-384 0c0 9 7 16 16 16 9 0 16-7 16-16 0-9-7-16-16-16-9 0-16 7-16 16z m32 192c0-9-7-16-16-16-9 0-16 7-16 16 0 9 7 16 16 16 9 0 16-7 16-16z m48-16c-9 0-16 7-16 16 0 9 7 16 16 16 9 0 16-7 16-16 0-9-7-16-16-16z m0 144c-9 0-16 7-16 16 0 9 7 16 16 16 9 0 16-7 16-16 0-9-7-16-16-16z"/>
<glyph glyph-name="analytics-05" unicode="&#110;" d="M399 205l-100 182c-1 2-4 3-6 3-2 0-4-2-5-4l-78-238-71 111c-2 2-3 3-6 3-2 0-4-2-4-4l-101-216 0 454-12 0 0-480c0-3 3-6 6-6l480 0 0 12-471 0 104 222 72-113c1-1 3-2 6-2 2 0 4 2 4 4l78 237 99-179c1-2 3-3 5-3 2 0 4 1 5 3l103 178-10 6z"/>
<glyph glyph-name="analytics-06" unicode="&#111;" d="M220 16l84 0 0 276-84 0z m90 288c3 0 6-3 6-6l0-288c0-3-3-6-6-6l-96 0c-3 0-6 3-6 6l0 288c0 3 3 6 6 6z m102-288l84 0 0 468-84 0z m96 474l0-480c0-3-3-6-6-6l-96 0c-3 0-6 3-6 6l0 480c0 3 3 6 6 6l96 0c3 0 6-3 6-6z m-480-474l84 0 0 84-84 0z m90 96c3 0 6-3 6-6l0-96c0-3-3-6-6-6l-96 0c-3 0-6 3-6 6l0 96c0 3 3 6 6 6z"/>
<glyph glyph-name="analytics-07" unicode="&#112;" d="M36 260l66 0c3 0 6 3 6 6l0 42 68 0 0-90c0-3 3-6 6-6l74 0 0-42c0-3 3-6 6-6l17 0c-24-13-52-20-81-20-75 0-139 49-162 116z m-8 54c0 15 2 29 5 42l63 0 0-84-63 0c-3 14-5 28-5 42z m170 170c29 0 57-7 81-20l-17 0c-3 0-6-3-6-6l0-42-74 0c-3 0-6-3-6-6l0-90-68 0 0 42c0 3-3 6-6 6l-66 0c23 68 87 116 162 116z m161-116l-91 0 0 84 29 0c29-20 51-50 62-84z m-97-96c-3 0-6-3-6-6l0-42-68 0 0 180 68 0 0-42c0-3 3-6 6-6l100 0c4-13 6-27 6-42 0-14-2-28-6-42z m35-96l-29 0 0 84 91 0c-11-34-33-63-62-84z m33 14c19 20 33 44 41 70l131 0 0 12-128 0c3 12 5 24 5 36l123 0 0 12-123 0c0 13-2 25-5 36l128 0 0 12-131 0c-4 13-9 25-16 36l147 0 0 12-154 0c-12 18-27 33-45 46 0 1-1 1-1 1-30 21-66 33-104 33-83 0-153-56-175-131 0-1 0-1 0-2-4-15-7-32-7-49 0-17 3-33 7-49 0 0 0-1 0-1 22-76 92-132 175-132 38 0 74 13 103 33 1 0 2 1 2 1 7 5 13 10 19 16l175-176 9 8z"/>
<glyph glyph-name="api" unicode="&#113;" d="M22 5l0 11 480 0 0-11z m6 123l468 0 0 356-468 0z m474-11l-480 0c-3 0-6 2-6 5l0 368c0 2 1 3 2 4 1 1 2 2 4 2l480 0c3 0 6-3 6-6l0-368c0-1-1-3-2-4-1-1-3-1-4-1z m-318 167l0 19-24 0c-20 0-30-6-30-18l0-4c0-12 9-18 23-18 18 0 31 9 31 21z m21-34c-13 0-19 8-20 19l-1 0c-5-14-17-21-34-21-24 0-38 13-38 35 0 21 15 33 49 33l23 0 0 12c0 16-9 25-28 25-13 0-23-7-29-17l-11 10c7 12 20 23 41 23 28 0 45-15 45-39l0-64 13 0 0-16z m116 48l0 20c0 21-13 35-33 35-16 0-30-10-30-23l0-43c0-15 14-23 30-23 20 0 33 14 33 34z m-81 68l18 0 0-19 1 0c6 15 18 22 34 22 29 0 47-24 47-61 0-37-18-60-47-60-16 0-27 7-34 21l-1 0 0-64-18 0z m130-116l0 116 18 0 0-116z m-2 153l0 3c0 6 4 10 11 10 8 0 11-4 11-10l0-3c0-6-3-10-11-10-7 0-11 4-11 10z"/>
<glyph glyph-name="assistant" unicode="&#114;" d="M160 198l102-176 101 176c-15 7-32 13-49 17-2 0-4 3-4 5 0 2 1 5 3 6 33 14 57 41 68 74-24-27-66-38-98-39-3-10-11-17-21-17-12 0-22 10-22 22 0 12 10 22 22 22 10 0 18-7 21-16 41 2 102 21 105 71-41 7-79 25-110 53-39-35-90-55-143-56 0-49 30-94 75-114 3-1 4-4 4-6-1-2-2-5-5-5-17-4-33-10-49-17z m-10-6c-74-40-122-115-122-198l-12 0c0 104 73 197 176 228-3 2-7 4-10 6l-80 0c-3 0-6 3-6 6l0 96c0 92 74 166 166 166 91 0 166-74 166-166l0-96c0-3-3-6-6-6l-81 0c-3-2-6-4-10-6 103-31 177-124 177-228l-12 0c0 83-49 158-122 198l-107-185c-1-1-3-3-5-3-2 0-4 2-5 3z m250 156c0 0 0 0 0-1l0-5c0-40-17-76-44-102l60 0 0 90c0 85-69 154-154 154-85 0-154-69-154-154l0-90 60 0c-28 26-45 62-45 102l0 4c0 2 1 3 2 4 1 1 3 2 4 2l5 0c52 0 102 20 140 56 2 2 6 2 8 0 31-30 70-49 113-54 3-1 5-3 5-6z m-42-312l0 12 96 0 0-12z m-96 240c-6 0-10-4-10-10 0-5 4-10 10-10 5 0 10 5 10 10 0 6-5 10-10 10z"/>
<glyph glyph-name="australia" unicode="&#115;" d="M305 480l42-67c1-1 1-3 0-5l-48-112c-1-2-3-4-5-4l-78 0-25-25 42-28c2-2 3-4 2-7l-16-48c0-1-1-2-3-3-1 0-2-1-2-1-1 0-2 1-2 1l-80 32c-2 0-3 2-4 3l-29 74-24-12-16-61c0-2-1-3-2-4l-24-14c23-103 115-181 225-183l15 29c0 0 0 1 1 1l47 48 16 31c0 1 2 2 4 3l80 16c1 0 3 0 5-2l27-27c27 38 43 85 43 135 0 115-82 210-191 230z m-15 3c-9 1-19 1-28 1-129 0-234-105-234-234 0-13 1-26 3-39l18 11 15 62c0 1 2 3 3 3l32 16c2 1 3 1 5 1 1-1 2-2 3-4l31-77 72-29 13 38-45 29c-1 1-2 3-2 5 0 1 0 3 2 4l32 32c1 1 2 2 4 2l76 0 45 106z m156-377l-26 26-74-15-15-29c0-1-1-1-1-2l-48-47-11-23c71 3 134 37 175 90z m-184-102c-136 0-246 111-246 246 0 136 110 246 246 246 135 0 246-110 246-246 0-135-111-246-246-246z m-13 124l40 0 14 57-8 8-29-42c-1-2-2-3-4-3l-23 0z m45-12l-48 0c-3 0-5 2-5 4l-16 32c-1 1-1 3 0 5 1 2 3 3 5 3l29 0 30 45c1 2 2 3 4 3 2 0 3 0 5-2l16-14c1-2 2-4 1-6l-16-65c0-3-3-5-5-5z"/>
<glyph glyph-name="automate-modular-management" unicode="&#116;" d="M331 290c-5-18-13-34-24-49l0 111c0 3-2 6-6 6-3 0-5-3-5-6l0-126c-11-11-23-21-37-29-28-17-60-23-92-20l96 56c3 1 4 5 3 7-2 3-6 4-8 3l-109-63c-2 0-5 1-7 1-40 11-73 37-94 72-2 4-5 9-7 13l97-55c1-1 2-1 3-1 2 0 4 1 5 3 1 3 0 6-2 8l-109 62c-15 47-7 98 21 137l0-112c0-3 3-5 6-5 3 0 6 2 6 5l0 126c10 12 22 22 37 30 24 14 50 21 76 21 5 0 10-1 15-1l-96-56c-3-2-4-5-2-8 1-2 3-3 5-3 1 0 2 1 3 1l108 63c41-9 79-34 101-74 3-4 5-8 7-13l-96 56c-3 2-7 1-8-2-2-3-1-6 2-8l109-63c9-28 9-58 2-87m8 93c0 0 0-1 0-1 10-30 11-63 3-95-7-25-20-48-36-67-1 0-1 0-1 0-11-13-25-24-40-33l0 0c-26-15-54-23-83-23-11 0-21 2-32 4 0 0 0 0 0 0-1 0-2 0-3 1-3 0-6 0-8 1-43 12-79 39-101 77-6 10-10 20-14 31 0 0 0 0 0 0-18 56-5 118 33 162 1 0 1 0 1 1 12 13 25 24 41 33 35 20 75 27 115 19 1 0 1 0 2-1 3 0 6-1 9-2 42-11 78-38 100-77 6-10 10-20 14-30z m-197-367c14 0 26 12 26 26 0 15-12 27-26 27 0 0 0 0 0 0 0 0 0 0 0 0-15 0-27-12-27-27 0-14 12-26 27-26z m5 64c19-3 33-19 33-38 0-20-17-37-38-37-21 0-38 17-38 37 0 19 14 35 32 38l0 58c0 4 3 6 6 6 3 0 5-2 5-6z m154-64c15 0 27 12 27 26 0 15-12 27-27 27-14 0-26-12-26-27 0-14 12-26 26-26z m6 64c18-3 32-19 32-38 0-20-17-37-38-37-20 0-37 17-37 37 0 19 14 35 32 38l0 90c0 4 2 6 6 6 3 0 5-2 5-6z m155-64c14 0 26 12 26 26 0 15-12 27-26 27 0 0 0 0 0 0 0 0 0 0 0 0-15 0-27-12-27-27 0-14 12-26 27-26z m5 64c19-3 32-19 32-38 0-20-16-37-37-37-21 0-38 17-38 37 0 19 14 35 32 38l0 231-79 46c-3 2-4 5-2 8 1 3 5 4 7 2l83-47c1-1 2-3 2-5z"/>
<glyph glyph-name="backup-01" unicode="&#117;" d="M388 132l0-58c0-3-3-6-6-6l-114 0 0-58c0-3-3-6-6-6l-240 0c-3 0-6 3-6 6l0 352c0 3 3 6 6 6l114 0 0 58c0 3 3 6 6 6l114 0 0 58c0 3 3 6 6 6l240 0c3 0 6-3 6-6l0-352c0-3-3-6-6-6z m0 12l108 0 0 340-228 0 0-52 114 0c3 0 6-3 6-6z m-240 224l114 0c3 0 6-3 6-6l0-282 108 0 0 340-228 0z m-120-352l228 0 0 340-228 0z"/>
<glyph glyph-name="backup-02" unicode="&#118;" d="M192 368l0 26 12 0 0-26 122 0c3 0 6-3 6-6l0-218 26 0 0-12-26 0 0-122c0-3-3-6-6-6l-304 0c-3 0-6 3-6 6l0 352c0 3 3 6 6 6z m-164-352l292 0 0 340-292 0z m176 442l-12 0 0 32c0 3 3 6 6 6l32 0 0-12-26 0z m68 26l0 12 57 0 0-12z m99 0l0 12 56 0 0-12z m137-26l-12 0 0 26-26 0 0 12 32 0c3 0 6-3 6-6z m-12-118l0 67 12 0 0-67z m0-119l0 68 12 0 0-68z m6-89l-32 0 0 12 26 0 0 26 12 0 0-32c0-3-3-6-6-6z m-111 0l0 12 45 0 0-12z"/>
<glyph glyph-name="backup-03" unicode="&#119;" d="M248 18c-1 0-2 0-3 1l-226 130c-2 1-3 3-3 5 0 2 1 4 3 5l53 31c3 2 7 1 8-2 2-3 1-6-2-8l-45-26 215-123 215 123-45 26c-3 2-4 5-2 8 1 3 5 4 8 2l53-31c2-1 3-3 3-5 0-2-1-4-3-5l-226-130c-1-1-2-1-3-1z m-215 326l215-124 215 124-215 124z m215-136c-1 0-2 0-3 1l-226 130c-2 1-3 3-3 5 0 2 1 4 3 5l226 130c2 1 4 1 6 0l226-130c2-1 3-3 3-5 0-2-1-4-3-5l-226-130c-1-1-2-1-3-1z m0-96c-1 0-2 0-3 1l-226 130c-2 1-3 3-3 5 0 2 1 4 3 5l55 32c3 2 7 1 8-2 2-3 1-6-2-8l-47-27 215-124 215 124-47 27c-3 2-4 5-2 8 1 3 5 4 8 2l55-32c2-1 3-3 3-5 0-2-1-4-3-5l-226-130c-1-1-2-1-3-1z"/>
<glyph glyph-name="bee" unicode="&#120;" d="M403 389c-7 0-14-4-18-11-2-5-3-10-2-15 2-5 5-10 10-12 10-6 23-2 28 8 3 4 4 10 2 15-1 5-5 9-10 12-3 2-6 3-10 3m0-52c-5 0-10 1-15 4-8 4-13 10-16 19-2 8-1 16 3 24 9 15 28 21 44 12 7-4 13-11 15-19 2-8 1-17-3-24-6-11-17-16-28-16z m-322 34c-19 0-37-10-46-27-7-12-9-26-6-39 4-14 13-25 26-32 20-12 44-9 62 6l0 0c0 0 0 1 0 1l89 79-120 12c-2 0-3 0-5 0z m0-117c-11 0-22 3-32 9-15 8-26 22-31 39-4 16-2 33 7 48 12 22 37 35 62 32l134-12c2-1 4-2 4-4 1-3 1-5-1-7l-99-87c0 0-1-1-1-1l-4 4 4-4c-12-11-27-17-43-17z m331-8l-21-116-6 0 5-1c-3-23 7-45 28-56 25-14 58-4 72 21 10 18 8 41-4 57z m31-191c-10 0-21 3-31 8-24 13-38 40-33 68 0 0 0 1 0 1l24 129c1 2 2 4 4 5 3 0 5-1 6-2l82-106c15-20 17-47 5-69-12-22-34-34-57-34z m-223 231l121-67 13 23-121 66z m124-80c-1 0-2 0-3 0l-131 72c-2 1-3 2-3 4-1 1 0 3 0 4l19 33c1 2 5 3 8 2l131-72c1-1 2-2 2-4 1-1 1-3 0-4l-18-32c-1-2-3-3-5-3z m-77 138l100-54c-2 22-15 42-35 53-20 11-44 11-65 1z m106-70c-1 0-2 0-3 1l-117 64c-2 1-3 3-3 5 0 2 1 4 2 5 26 17 58 19 85 4 27-15 43-43 42-74 0-2-1-3-3-4-1-1-2-1-3-1z m-189-53l121-66 13 22-121 66z m123-80c-1 0-2 0-3 1l-131 72c-1 0-2 2-2 3-1 2-1 3 0 5l18 32c2 3 5 4 8 2l131-72c2 0 3-2 3-3 0-2 0-3 0-5l-19-32c-1-2-3-3-5-3z m-101-21c20-11 44-12 65-2l-100 55c2-22 15-42 35-53z m34-21c-14 0-27 4-40 11-27 14-42 43-41 73 0 2 1 4 3 5 2 1 4 1 6 0l117-65c2-1 3-2 3-4 0-2-1-4-2-5-14-10-30-15-46-15z m76 337c-7 0-14-3-18-10-3-5-3-10-2-15 2-5 5-10 10-12 10-6 22-2 28 7 3 5 3 11 2 16-2 5-5 9-10 12-3 2-7 2-10 2z m0-51c-5 0-11 1-16 3-7 5-13 11-15 20-2 8-1 16 3 24 9 15 28 21 44 12 7-4 13-11 15-19 2-8 1-17-3-24-6-11-17-16-28-16z"/>
<glyph glyph-name="bike" unicode="&#121;" d="M176 303l56-98c4 2 9 3 14 3 21 0 38-17 38-38 0-21-17-38-38-38-19 0-35 14-38 32l-37 0c-3-44-40-80-85-80-48 0-86 39-86 86 0 48 38 86 86 86 45 0 82-35 85-80l37 0c2 10 7 18 14 24l-109 188 13 0 43-73 147 0-45 76c-1 3 0 7 3 8 0 1 1 1 2 1l10-12 44-76c1 0 1 0 1-1l37-64c11 6 24 9 38 9 47 0 86-38 86-86 0-47-39-86-86-86-48 0-86 39-86 86 0 30 15 56 38 71l-36 62z m198-66l37-64c1-3 0-6-2-8-1 0-2-1-3-1-2 0-4 1-5 3l-37 64c-20-13-32-35-32-61 0-41 33-74 74-74 41 0 74 33 74 74 0 41-33 74-74 74-12 0-23-2-32-7z m-214-61c-3 38-35 68-74 68-41 0-74-33-74-74 0-41 33-74 74-74 39 0 71 30 74 68l-74 0c-3 0-6 3-6 6 0 1 0 2 1 3l15 3z m86 20c-15 0-26-11-26-26 0-14 11-26 26-26 14 0 26 12 26 26 0 15-12 26-26 26z m112 204c21 0 38-17 38-38 0-21-17-38-38-38-3 0-6 3-6 6 0 3 3 6 6 6 14 0 26 12 26 26 0 15-12 26-26 26l-72 0-10 12z m-99-195c25 44 44 76 57 98 3 0 5 0 6 0l4-6c-13-22-32-54-57-97z m-173 183c-3 0-6 3-6 6 0 3 3 6 6 6l64 0c3 0 6-3 6-6 0-3-3-6-6-6z m38-141c14 25 26 46 35 62l7-12c-12-20-23-39-33-56z m-43-74c19 33 31 54 37 64l10-6c-13-22-24-40-32-55z"/>
<glyph glyph-name="brain" unicode="&#122;" d="M353 133c-2-27-19-50-46-64-7-3-7-11-7-22l0-37-12 0 0 37c0 11 0 26 13 32 24 12 38 31 41 54l-16 0c-35 1-70 34-70 66l0 234c0 17 6 31 20 45 24 24 71 24 95 0 12-12 18-27 18-44 0-7-1-14-4-21 22 8 48 3 65-14 17-17 23-42 15-64 10-3 18-9 26-16 10-11 16-25 17-40 0 0 0-1 0-1 0 0 0-1 0-2 0-1 0-1 0-2 0 0 0 0 0-1-1-25-19-48-43-56 2-5 3-11 3-17 0-1 0-1 0-1 0-1 0-1 0-2 0-1 0-2 0-2 0 0 0-1 0-1 0-16-7-31-18-43-12-12-27-18-43-18z m-283 204c7 1 14 1 21-1 4-1 8-2 13-4l-5-10c-4 1-7 2-11 3-3 1-7 1-10 1l0 0c-14 0-27-5-36-15-9-9-14-21-14-34l0-2c0-22 15-41 36-47 3 4 6 8 9 12 12 12 28 18 44 18l0-11c-13 0-26-6-36-15-8-9-13-21-14-34l0-3c1-13 6-26 16-36 9-10 22-15 34-15l119 0 0-11-54 0c2-25 13-43 34-54 12-6 20-19 20-33l0-36-12 0 0 36c0 10-5 19-13 23-25 13-39 34-41 64l-53 0c-16 0-31 6-43 18-11 12-18 27-18 43 0 0 0 1 0 1 0 0 0 1 0 2 0 1 0 1 0 2 0 0 0 0 0 1 0 6 1 12 3 17-24 8-42 31-43 56 0 1 0 1 0 1 0 1 0 1 0 2 0 1 0 2 0 2 0 0 0 1 0 1 1 15 7 29 17 40 8 7 17 13 26 16-8 22-2 47 15 64 17 17 43 22 65 14-8 22-4 47 14 65 24 24 63 24 87 0l-8-8c-19 19-51 19-71 0-19-20-19-52 0-71 2-3 2-6 0-8-2-3-6-3-8 0-19 19-52 19-71 0-14-14-19-36-12-54z m390-109c21 6 36 25 36 47l0 2c0 13-5 25-14 34-6 7-15 11-24 14l-12 1c-3 0-7 0-10-1-4-1-7-2-11-3l-5 10c5 2 9 3 13 4 4 1 9 2 13 2 0 0 0 0 0 0 3 0 5-1 8-1 7 18 2 40-12 54-19 19-51 19-71 0-2-3-6-3-8 0-1 1-2 2-2 4 0 1 1 3 2 4 9 9 15 22 15 35 0 14-6 26-15 36-20 19-60 19-79 0-11-12-16-23-16-37l0-234c0-26 29-54 58-55l81 0c12 0 25 5 34 15 10 10 15 23 16 36l0 3c-1 13-6 25-14 34-10 9-23 15-36 15l0 11c16 0 32-6 44-18 3-4 6-8 9-12z"/>
<glyph glyph-name="brand-assets" unicode="&#65;" d="M336 176l-101 0 0 37 59 0c3 0 5 2 5 5l0 59 37 0z m-149 48l101 0 0 101-101 0z m155 64c3 0 5-3 5-6l0-112c0-3-2-5-5-5l-112 0c-3 0-6 2-6 5l0 43-42 0c-3 0-6 2-6 5l0 112c0 3 3 6 6 6l112 0c3 0 5-3 5-6l0-42z m37-241c28 16 51 37 69 61l0 206 11 0 0-189c40 63 49 144 19 216l-179 103 6 10 164-95c-2 3-3 6-4 8-38 66-104 106-173 116l-179-103-6 10 164 94c-3 0-6 0-10 0-39 0-80-10-116-31-28-16-51-36-70-60l0-207-11 0 0 190c-13-20-22-42-29-65-13-51-9-103 11-151l178-103-6-10-163 95c1-3 2-6 4-9 38-66 103-106 173-115l178 103 6-10-164-94c43-2 87 7 127 30z m96 326c67-117 27-268-90-336l0 0c-39-22-81-32-123-32-85 0-168 44-213 122-68 118-28 268 90 336 117 68 268 28 336-90z"/>
<glyph glyph-name="brand-guidelines" unicode="&#66;" d="M238 173l-34-22 3 40 100 174 32-18z m111 181c2-1 3-2 3-3 0-2 0-3-1-5l-104-180c0-1-1-1-1-2l-45-29c-1-1-2-1-3-1-1 0-2 0-3 0-2 2-3 4-3 6l3 53c0 1 0 2 1 3l104 180c1 3 5 4 8 2z m30-307c28 16 51 37 69 61l0 206 11 0 0-189c40 63 49 144 19 216l-179 103 6 10 164-95c-2 3-3 6-4 8-38 66-104 106-173 116l-179-103-6 10 164 94c-3 0-6 0-10 0-39 0-80-10-116-31-28-16-51-37-70-61l0-206-11 0 0 190c-40-64-48-144-18-216l178-103-6-10-163 94c1-2 2-5 4-8 38-66 103-106 173-115l178 103 6-10-164-95c43-1 87 8 127 31z m96 326c67-117 27-268-90-336-39-22-81-32-123-32-85 0-168 44-213 122-68 118-28 268 90 336 117 68 268 28 336-90z"/>
<glyph glyph-name="brand-tutorials" unicode="&#67;" d="M293 193l-30 30c-1 1-2 2-4 2-1 0-3-1-4-2l-16-16-33 99 99-33-16-16c-1-1-2-3-2-4 0-2 1-3 2-4l30-30z m8 60l30-30c1-1 2-3 2-4 0-2-1-3-2-4l-34-34c-1-1-2-2-4-2-1 0-3 1-4 2l-30 30-18-19c-2-1-4-2-6-1-2 0-3 1-4 3l-40 119c0 2 0 4 2 6 1 2 4 2 6 1l119-39c1-1 3-2 3-4 1-2 0-4-1-6z m78-206c28 16 51 37 69 61l0 206 11 0 0-189c40 63 49 144 19 216l-179 102 6 10 164-94c-2 3-3 6-4 8-32 54-82 93-143 109-10 3-20 5-30 6l-179-103-6 10 164 95c-3 0-6 0-10 0-40 0-80-10-116-31-28-16-51-37-70-61l0-206-11 0 0 189c-40-63-48-143-18-215l178-103-6-10-163 94c1-2 2-5 4-8 38-66 103-106 173-115l178 103 6-10-164-95c43-1 87 8 127 31z m96 326c67-117 27-268-90-336-39-22-81-33-123-33-85 0-168 44-213 123-68 118-28 268 90 336 57 33 123 42 186 25 64-17 117-58 150-115z"/>
<glyph glyph-name="build" unicode="&#68;" d="M304 250c0-23-19-42-42-42-24 0-43 19-43 42 0 24 19 42 43 42 23 0 42-18 42-42z m-36 144l0-91c26-3 47-25 47-53 0-29-24-54-53-54-30 0-54 25-54 54 0 28 21 51 48 53l0 91c0 3 3 6 6 6 3 0 6-3 6-6z m-6 90c-10 0-19-8-19-18 0-10 9-18 19-18 10 0 18 8 18 18 0 10-8 18-18 18z m0-48c-17 0-30 14-30 30 0 17 13 30 30 30 16 0 29-13 29-30 0-16-13-30-29-30z m-112-420c32 0 58 26 58 58 0 32-26 58-58 58-32 0-59-26-59-58 0-32 27-58 59-58z m42 114c16-13 27-33 27-56 0-38-31-70-69-70-39 0-70 32-70 70 0 39 31 70 70 70 11 0 22-3 32-8l34 53c2 3 5 4 8 2 3-2 4-5 2-8z m234 180l0 41-36 21-36-21 0-41 36-21z m11-4c0-2-1-4-3-5l-41-24c-1 0-2-1-3-1-1 0-2 1-3 1l-42 24c-1 1-3 3-3 5l0 48c0 2 2 4 3 5l42 24c2 1 4 1 6 0l41-24c2-1 3-3 3-5z m59-181l0 91-79-46z m9 106c1-1 3-3 3-5l0-111c0-2-2-4-3-5-1-1-2-1-3-1-1 0-2 0-3 1l-96 55c-2 1-3 3-3 5 0 2 1 4 3 5l96 56c2 1 4 1 6 0z m-449 13l-26-26 26-26 25 26z m0-65c-2 0-3 0-4 1l-34 34c-3 2-3 6 0 8l34 34c2 2 6 2 8 0l34-34c2-2 2-6 0-8l-34-34c-1-1-3-1-4-1z m137 295c-3 0-5 2-6 4-1 3 1 7 4 8l0 0c3 1 6-1 7-4 1-3 0-6-4-7 0 0-1-1-1-1z m-85-46c-2 0-3 1-5 2-2 3-1 7 1 9 0 0 0 0 1 0 2 2 6 2 8-1 2-3 1-6-2-8-1-1-2-2-3-2z m-24-22c-1 0-2 1-3 2-3 2-3 6-1 8 0 0 1 0 1 0 2 3 5 3 8 0 2-2 2-6 0-8-1-1-3-2-5-2z m50 42c-2 0-4 1-5 3-1 2-1 6 2 7l3-5-3 5c3 2 6 1 8-1 2-3 1-6-1-8-1-1-3-1-4-1z m28 15c-2 0-4 1-5 3-1 3 0 7 3 8 0 0 0 0 0 0 3 1 7 0 8-3 1-3 0-6-3-8-1 0-2 0-3 0z m-130-165l-5 0-6 2c1 3 4 5 7 4 3 0 5-3 4-6z m-10-37c-3 0-6 2-6 6 0 0 1 0 1 0 0 3 2 5 6 5 3 0 5-3 5-6 0-3-3-5-6-5 0 0 0 0 0 0z m19 67l-6 1-5 2c1 3 4 5 7 4 3-1 5-4 4-7z m23 54c-1 0-2 0-3 1-2 1-3 5-1 7l4-3-4 3c1 3 5 3 8 2 2-2 3-5 1-8-1-1-3-2-5-2z m-19-28c-3 2-4 5-2 8 0 0 0 0 0 0 1 3 5 4 8 2 2-1 3-5 2-7-1-2-3-4-5-4-1 0-2 1-3 1z m2-197c6-14 13-27 22-39 1-3 1-7-2-9-1 0-2-1-3-1-2 0-4 1-5 3-9 13-16 27-23 41-1 3 0 6 3 8 3 1 7-1 8-3z m402-47c2 2 6 3 8 1 3-2 3-6 1-8-47-63-118-99-196-99-14 0-28 2-41 4-3 0-5 3-5 7 1 3 4 5 7 4 12-2 26-3 39-3 74 0 142 34 187 94z m-140 370c-4 0-6 3-5 7 1 3 4 5 7 4 108-22 189-114 196-224 0-4-2-6-5-7-1 0-1 0-1 0-3 0-5 3-6 6-6 105-83 193-186 214z m-158-300c-2 0-4 2-5 3-12 21-18 44-18 67 0 61 41 115 100 130 3 1 7-1 7-4 1-3-1-7-4-7-54-14-92-63-92-119 0-21 6-42 17-61 1-3 0-6-2-8-1 0-2-1-3-1z m220 3c-3 1-4 5-3 8l6-3 5-3c-1-2-3-3-5-3-1 0-2 1-3 1z m16 41c3-1 5-4 4-7 0 0 0-1 0-1-1-2-3-4-5-4-1 0-1 0-2 0-3 1-5 4-4 8 1 3 4 4 7 4z m8 26c0-3-2-6-5-6-3 0-6 3-6 6 0 3 3 6 6 6 3 0 5-3 5-6z m-45-84c3 2 6 3 9 0 2-2 2-5 0-8 0 0 0 0 0 0-2-1-3-2-5-2-1 0-2 1-4 2-2 2-2 6 0 8z m-87-44c0 4 2 6 6 6 3 0 5-2 6-5 0-3-3-6-6-6 0 0 0 0 0 0-4 0-6 2-6 5z m36 12c3 1 6-1 7-4 1-3-1-6-4-7l0 0c-1-1-1-1-2-1-2 0-4 2-5 4-1 4 1 7 4 8z m-64-15c-3 1-5 4-4 7 0 3 3 5 6 4l0-5z m99 26c2-3 1-7-1-8l-3 5 3-5c-1-1-2-1-3-1-2 0-4 1-5 3-2 2-1 6 1 7 3 2 7 1 8-1z"/>
<glyph glyph-name="building-01" unicode="&#69;" d="M214 16l84 0 0 116-84 0z m256 442l0-442 26 0 0-12-480 0 0 12 26 0 0 442 12 0 0-442 148 0 0 122c0 3 3 6 6 6l96 0c3 0 6-3 6-6l0-122 148 0 0 442z m-454 26l0 12 480 0 0-12z m74-90l0 32 12 0 0-32z m0-96l0 32 12 0 0-32z m0-96l0 32 12 0 0-32z m80 192l0 32 12 0 0-32z m0-96l0 32 12 0 0-32z m0-96l0 32 12 0 0-32z m80 192l0 32 12 0 0-32z m0-96l0 32 12 0 0-32z m0-96l0 32 12 0 0-32z m80 192l0 32 12 0 0-32z m0-96l0 32 12 0 0-32z m0-96l0 32 12 0 0-32z m80 192l0 32 12 0 0-32z m0-96l0 32 12 0 0-32z m0-96l0 32 12 0 0-32z"/>
<glyph glyph-name="building-02" unicode="&#70;" d="M28 484l276 0 0-468-100 0 0 122c0 3-3 6-6 6l-64 0c-3 0-6-3-6-6l0-122-100 0z m288-100l84 0 0 52-84 0z m180-368l-180 0 0 356 180 0z m-356 0l52 0 0 116-52 0z m-118-12l480 0c3 0 6 3 6 6l0 368c0 3-3 6-6 6l-90 0 0 58c0 3-3 6-6 6l-90 0 0 42c0 3-3 6-6 6l-288 0c-3 0-6-3-6-6l0-480c0-3 3-6 6-6z m42 390l12 0 0 32-12 0z m0-96l12 0 0 32-12 0z m0-96l12 0 0 32-12 0z m128 192l12 0 0 32-12 0z m0-96l12 0 0 32-12 0z m0-96l12 0 0 32-12 0z m-64 192l12 0 0 32-12 0z m0-96l12 0 0 32-12 0z m0-96l12 0 0 32-12 0z m-64-96l12 0 0 32-12 0z m192 288l12 0 0 32-12 0z m0-96l12 0 0 32-12 0z m0-96l12 0 0 32-12 0z m0-96l12 0 0 32-12 0z m112 192l12 0 0 32-12 0z m0-96l12 0 0 32-12 0z m0-96l12 0 0 32-12 0z m64 192l12 0 0 32-12 0z m0-96l12 0 0 32-12 0z m0-96l12 0 0 32-12 0z"/>
<glyph glyph-name="building-02-1" unicode="&#71;" d="M432 26c0-5-5-10-10-10-6 0-10 5-10 10l0 106 20 0z m-42-10c-6 0-10 5-10 10 0 3-3 6-6 6-3 0-6-3-6-6 0-5-5-10-10-10-6 0-10 5-10 10 0 3-3 6-6 6-3 0-6-3-6-6 0-5-5-10-10-10-6 0-10 5-10 10 0 3-3 6-6 6-3 0-6-3-6-6 0-5-5-10-10-10-6 0-10 5-10 10 0 3-3 6-6 6-3 0-6-3-6-6 0-5-5-10-10-10-6 0-10 5-10 10 0 3-3 6-6 6-3 0-6-3-6-6 0-5-5-10-10-10-6 0-10 5-10 10l0 106 180 0 0-106c0-5-5-10-10-10z m-192 0c-6 0-10 5-10 10 0 3-3 6-6 6-3 0-6-3-6-6 0-5-5-10-10-10-6 0-10 5-10 10 0 3-3 6-6 6-3 0-6-3-6-6 0-5-5-10-10-10-6 0-10 5-10 10l0 106 84 0 0-106c0-5-5-10-10-10z m-170 180l468 0 0-52-468 0z m0 112l212 0 0-100-212 0z m96 12l52 0 0 100-52 0z m244 161l0-21-31-63c0 0 0 0 0 0-1-1-1-2-1-3l0-74-58 0c-3 0-6-3-6-6l0-106-20 0 0 106c0 3-3 6-6 6l-58 0 0 71z m12-17l20 0 0 20-20 0z m-29-64l26 52 25 0 26-52z m23-80l-26 0 0 68 84 0 0-180-52 0 0 106c0 3-3 6-6 6z m-90-112l0 100 84 0 0-100z m218-76c3 0 6 3 6 6l0 64c0 3-3 6-6 6l-58 0 0 186c0 1-1 2-1 3 0 0 0 0 0 0l-31 63 0 30c0 3-3 6-6 6l-32 0c0 0 0 0 0 0-1 0-1 0-1 0-1 0-1 0-2-1 0 0 0 0 0 0l-183-91 0 22c0 3-3 6-6 6l-64 0c-3 0-6-3-6-6l0-106-90 0c-3 0-6-3-6-6l0-176c0-3 3-6 6-6l90 0 0-106c0-5-5-10-10-10-6 0-10 5-10 10l0 0c0 3-3 6-6 6-3 0-6-3-6-6 0 0 0 0 0 0 0-5-5-10-10-10-6 0-10 5-10 10 0 3-3 6-6 6-3 0-6-3-6-6 0-5-5-10-10-10-6 0-10 5-10 10 0 3-3 6-6 6-3 0-6-3-6-6 0-12 10-22 22-22 6 0 12 3 16 8 4-5 9-8 16-8 6 0 12 3 16 8 4-5 9-8 16-8 6 0 12 3 16 8 4-5 9-8 16-8 6 0 12 3 16 8 4-5 9-8 16-8 6 0 12 3 16 8 4-5 9-8 16-8 6 0 12 3 16 8 4-5 9-8 16-8 6 0 12 3 16 8 4-5 9-8 16-8 6 0 12 3 16 8 4-5 9-8 16-8 6 0 12 3 16 8 4-5 9-8 16-8 6 0 12 3 16 8 4-5 9-8 16-8 6 0 12 3 16 8 4-5 9-8 16-8 6 0 12 3 16 8 4-5 9-8 16-8 6 0 12 3 16 8 4-5 9-8 16-8 6 0 12 3 16 8 4-5 9-8 16-8 12 0 22 10 22 22 0 3-3 6-6 6-3 0-6-3-6-6 0-5-5-10-10-10-6 0-10 5-10 10 0 0 0 0 0 0 0 3-3 6-6 6l0 0c-3 0-6-3-6-6l0 0c0-5-5-10-10-10-6 0-10 5-10 10l0 106z"/>
<glyph glyph-name="building-03" unicode="&#72;" d="M480 16l-244 0 0 122c0 3-3 6-6 6l-64 0c-3 0-6-3-6-6l0-122-116 0 0 276 186 0c3 0 6 3 6 6l0 186 244 0z m-308 0l52 0 0 116-52 0z m320-6l0 480c0 3-3 6-6 6l-256 0c-3 0-6-3-6-6l0-186-186 0c-3 0-6-3-6-6l0-288c0-3 3-6 6-6l448 0c3 0 6 3 6 6z m-204 384l12 0 0 32-12 0z m0-96l12 0 0 32-12 0z m-192-96l12 0 0 32-12 0z m320 192l12 0 0 32-12 0z m0-96l12 0 0 32-12 0z m-192-96l12 0 0 32-12 0z m128 192l12 0 0 32-12 0z m0-96l12 0 0 32-12 0z m64-96l12 0 0 32-12 0z m0-96l12 0 0 32-12 0z m-64 96l12 0 0 32-12 0z m0-96l12 0 0 32-12 0z m-192 96l12 0 0 32-12 0z m-64-96l12 0 0 32-12 0z m192 96l12 0 0 32-12 0z m0-96l12 0 0 32-12 0z"/>
<glyph glyph-name="building-03-1" unicode="&#73;" d="M429 16l38 0 0 53-38 0z m-11 59l0-59-61 0-90 237 175-100 0-73-18 0c-4 0-6-2-6-5z m-251-59l20 53 138 0 20-53z m-81 0l0 237c2 0 5 0 8 1 12 3 22 10 28 21l27 47 100-58-94-248z m-12 249c-3 0-6 1-9 3-16 10-22 31-13 47l88 152c7 11 18 17 30 17 6 0 12-1 17-4 16-10 22-31 13-47l-88-152c-5-8-12-14-21-16-2-1-4-1-5-1l0 2-12 0z m166-57l16 42 16-42z m60-75l20-53-129 0 20 53z m-84 11l20 53 40 0 20-53z m251 50l-18-32-295 170 19 31z m11-178l0 59c0 3-2 5-6 5l-18 0 0 69c0 1 1 1 2 2l24 42c0 1 1 3 0 4 0 2-1 3-2 4l-300 172 32 54 0 0c12 22 5 50-17 63-22 13-50 5-63-17l-88-152c-12-22-5-50 17-63 5-3 10-4 15-5l0-237-74 0 0-11 512 0 0 11z m-380 283c0 8-7 16-16 16-9 0-16-8-16-16 0-9 7-16 16-16 9 0 16 7 16 16"/>
<glyph glyph-name="bulldozer" unicode="&#74;" d="M460 131l-34 0c-10 11-15 25-15 39 0 15 5 29 15 39l34 0c-3-12-5-25-5-39 0-13 2-26 5-39z m-60-73c0-23-19-42-42-42l-288 0c-24 0-42 19-42 42 0 24 18 42 42 42l288 0c23 0 42-18 42-42z m-372 86l0 84 303 0c11 0 21-9 21-21l0-95-276 0 0 26c0 3-3 6-6 6z m52 180l0-84-52 0 0 84z m12-84l84 0 0 84-84 0z m-64 116l180 0 0-20-180 0z m477-94l-8 8c-15-14-26-31-33-49l-41 0c-1 0-3-1-4-2-11-12-18-27-19-43l-36 0 0 31c0 18-15 33-33 33l-143 0 0 84 26 0c3 0 6 3 6 6l0 32c0 3-3 6-6 6l-192 0c-3 0-6-3-6-6l0-32 0-192c0-3 3-6 6-6l42 0 0-21c-27-3-48-25-48-53 0-29 24-54 54-54l288 0c29 0 54 25 54 54 0 28-22 50-48 53l0 53 36 0c1-16 8-31 19-42 1-2 3-2 4-2l41 0c7-18 18-35 33-50l8 8c-25 25-39 58-39 92 0 34 14 67 39 92z m-273 202c13 0 16-13 16-22l0-28c0-9 4-26 30-26 3 0 6 3 6 6 0 3-3 6-6 6-16 0-18 7-18 14l0 28c0 17-9 34-28 34-20 0-20 11-20 14 0 3-3 6-6 6-3 0-6-3-6-6 0-16 12-26 32-26m22 20c13 0 18-9 18-18l0-24c0-3 3-6 6-6 3 0 6 3 6 6l0 24c0 18-13 30-30 30-3 0-6-3-6-6 0-3 3-6 6-6m-24-83c3 0 5 2 5 5 0 4-2 6-5 6-14 0-18 9-18 18l0 12c0 3-3 6-6 6-3 0-6-3-6-6l0-12c0-17 12-29 30-29m90-161l12 0 0 154c0 3-3 6-6 6l-32 0 0-12 26 0z m-250-166c-9 0-16-7-16-16 0-9 7-16 16-16 9 0 16 7 16 16 0 9-7 16-16 16m72 0c-9 0-16-7-16-16 0-9 7-16 16-16 9 0 16 7 16 16 0 9-7 16-16 16m72 0c-9 0-16-7-16-16 0-9 7-16 16-16 9 0 16 7 16 16 0 9-7 16-16 16m72 0c-9 0-16-7-16-16 0-9 7-16 16-16 9 0 16 7 16 16 0 9-7 16-16 16m56-16c0-9 7-16 16-16 9 0 16 7 16 16 0 9-7 16-16 16-9 0-16-7-16-16m-192 138l32 0 0 12-32 0z"/>
<glyph glyph-name="bus" unicode="&#75;" d="M464 436l-404 0 0-180 404 0z m0 12l0 10c0 15-12 26-26 26l-352 0c-15 0-26-11-26-26l0-10z m-96-380l-212 0 0-42c0-12-10-22-22-22l-32 0c-12 0-22 10-22 22l0 43c-18 3-32 18-32 37l0 352c0 21 17 38 38 38l352 0c21 0 38-17 38-38l0-352c0-19-14-34-32-37l0-43c0-12-10-22-22-22l-32 0c-12 0-22 10-22 22z m12 0l0-42c0-5 4-10 10-10l32 0c5 0 10 5 10 10l0 42z m-236 0l-52 0 0-42c0-5 4-10 10-10l32 0c5 0 10 5 10 10z m320 176l-404 0 0-138c0-14 11-26 26-26l352 0c14 0 26 12 26 26z m-346-64c-15 0-26-11-26-26 0-14 11-26 26-26 14 0 26 12 26 26 0 15-12 26-26 26z m0-64c-21 0-38 17-38 38 0 21 17 38 38 38 21 0 38-17 38-38 0-21-17-38-38-38z m288 64c-15 0-26-11-26-26 0-14 11-26 26-26 14 0 26 12 26 26 0 15-12 26-26 26z m0-64c-21 0-38 17-38 38 0 21 17 38 38 38 21 0 38-17 38-38 0-21-17-38-38-38z m-64 48l-160 0c-3 0-6 3-6 6 0 3 3 6 6 6l160 0c3 0 6-3 6-6 0-3-3-6-6-6z m0-32l-160 0c-3 0-6 3-6 6 0 3 3 6 6 6l160 0c3 0 6-3 6-6 0-3-3-6-6-6z m16 153c-2 0-4 1-5 3l-64 111c-2 3-1 6 2 8 3 1 6 0 8-2l64-111c1-3 0-7-2-8-1-1-2-1-3-1z m16 44c-2 0-4 1-5 3l-32 55c-2 3-1 6 2 8 3 2 6 1 8-2l32-56c1-2 0-6-2-7-1-1-2-1-3-1z m-352-5c-3 0-6 3-6 6l0 96c0 3 3 6 6 6 3 0 6-3 6-6l0-96c0-3-3-6-6-6z m480 0c-3 0-6 3-6 6l0 96c0 3 3 6 6 6 3 0 6-3 6-6l0-96c0-3-3-6-6-6z"/>
<glyph glyph-name="calendar-01" unicode="&#76;" d="M380 86l20 0 0 20-20 0z m16 356l0-42-12 0 0 42-116 0 0-42-12 0 0 42-116 0 0-42-12 0 0 42-84 0 0-420 436 0 0 420z m-12 12l0 42 12 0 0-42 90 0c3 0 6-3 6-6l0-432c0-3-3-6-6-6l-448 0c-3 0-6 3-6 6l0 432c0 3 3 6 6 6l90 0 0 42 12 0 0-42 116 0 0 42 12 0 0-42z m22-380l-32 0c-3 0-6 3-6 6l0 32c0 3 3 6 6 6l32 0c3 0 6-3 6-6l0-32c0-3-3-6-6-6z m-154 236l20 0 0 20-20 0z m26-12l-32 0c-3 0-6 3-6 6l0 32c0 3 3 6 6 6l32 0c3 0 6-3 6-6l0-32c0-3-3-6-6-6z m-26-100l20 0 0 20-20 0z m26-12l-32 0c-3 0-6 3-6 6l0 32c0 3 3 6 6 6l32 0c3 0 6-3 6-6l0-32c0-3-3-6-6-6z m-26-100l20 0 0 20-20 0z m26-12l-32 0c-3 0-6 3-6 6l0 32c0 3 3 6 6 6l32 0c3 0 6-3 6-6l0-32c0-3-3-6-6-6z m-154 236l20 0 0 20-20 0z m26-12l-32 0c-3 0-6 3-6 6l0 32c0 3 3 6 6 6l32 0c3 0 6-3 6-6l0-32c0-3-3-6-6-6z m-26-100l20 0 0 20-20 0z m26-12l-32 0c-3 0-6 3-6 6l0 32c0 3 3 6 6 6l32 0c3 0 6-3 6-6l0-32c0-3-3-6-6-6z m-26-100l20 0 0 20-20 0z m26-12l-32 0c-3 0-6 3-6 6l0 32c0 3 3 6 6 6l32 0c3 0 6-3 6-6l0-32c0-3-3-6-6-6z m230 236l20 0 0 20-20 0z m26-12l-32 0c-3 0-6 3-6 6l0 32c0 3 3 6 6 6l32 0c3 0 6-3 6-6l0-32c0-3-3-6-6-6z m-26-100l20 0 0 20-20 0z m26-12l-32 0c-3 0-6 3-6 6l0 32c0 3 3 6 6 6l32 0c3 0 6-3 6-6l0-32c0-3-3-6-6-6z"/>
<glyph glyph-name="calendar-02" unicode="&#77;" d="M28 22l436 0 0 420-436 0z m442-12l-448 0c-3 0-6 3-6 6l0 432c0 3 3 6 6 6l448 0c3 0 6-3 6-6l0-432c0-3-3-6-6-6z m-295 298c13 0 22 3 28 8 6 6 9 13 9 21l0 2c0 10-3 17-9 21-6 5-14 7-23 7-9 0-17-2-23-6-5-4-10-9-14-16l-16 12c2 4 5 8 8 11 3 4 7 7 11 9 5 3 10 5 15 7 6 2 12 3 19 3 8 0 15-1 22-3 6-2 12-5 17-9 5-4 9-9 11-14 3-6 5-12 5-19 0-6-1-11-3-16-2-5-4-9-7-12-3-3-7-6-11-9-4-2-9-4-14-5l0-1c5-1 10-3 14-5 5-2 9-5 12-9 4-4 7-8 9-13 2-6 3-12 3-18 0-8-1-15-4-21-3-7-7-12-13-17-5-4-11-8-19-10-7-3-16-4-25-4-7 0-14 1-20 2-6 2-11 4-16 7-5 3-9 6-12 10-4 4-7 7-10 11l17 13c2-4 4-7 7-10 3-3 5-6 9-8 3-2 7-3 11-4 4-1 9-2 14-2 13 0 22 3 29 9 6 5 9 13 9 24l0 2c0 11-3 19-9 25-7 5-16 8-29 8l-21 0 0 19z m109-103l0 19 50 0 0 144-1 0-46-42-12 13 47 45 34 0 0-160 46 0 0-19z m-172 195l12 0 0 96-12 0z m256 0l12 0 0 96-12 0z"/>
<glyph glyph-name="calendar-03" unicode="&#78;" d="M284 112l116 0 0 52-116 0z m122-12l-128 0c-3 0-6 3-6 6l0 64c0 3 3 6 6 6l128 0c3 0 6-3 6-6l0-64c0-3-3-6-6-6z m-96 336l-128 0c-3 0-6 3-6 6 0 3 3 6 6 6l128 0c3 0 6-3 6-6 0-3-3-6-6-6z m160-432l-448 0c-3 0-6 3-6 6l0 432c0 3 3 6 6 6l64 0c3 0 6-3 6-6 0-3-3-6-6-6l-58 0 0-420 436 0 0 420-58 0c-3 0-6 3-6 6 0 3 3 6 6 6l64 0c3 0 6-3 6-6l0-432c0-3-3-6-6-6z m-378 252l116 0 0 52-116 0z m122-12l-128 0c-3 0-6 3-6 6l0 64c0 3 3 6 6 6l128 0c3 0 6-3 6-6l0-64c0-3-3-6-6-6z m144 240c-6 0-10-4-10-10l0-64c0-5 4-10 10-10 5 0 10 5 10 10l0 64c0 6-5 10-10 10z m0-96c-12 0-22 10-22 22l0 64c0 12 10 22 22 22 12 0 22-10 22-22l0-64c0-12-10-22-22-22z m-224 96c-6 0-10-4-10-10l0-64c0-5 4-10 10-10 5 0 10 5 10 10l0 64c0 6-5 10-10 10z m0-96c-12 0-22 10-22 22l0 64c0 12 10 22 22 22 12 0 22-10 22-22l0-64c0-12-10-22-22-22z m-42-276l116 0 0 52-116 0z m122-12l-128 0c-3 0-6 3-6 6l0 64c0 3 3 6 6 6l128 0c3 0 6-3 6-6l0-64c0-3-3-6-6-6z m70 156l116 0 0 52-116 0z m122-12l-128 0c-3 0-6 3-6 6l0 64c0 3 3 6 6 6l128 0c3 0 6-3 6-6l0-64c0-3-3-6-6-6z"/>
<glyph glyph-name="camera" unicode="&#79;" d="M28 16l468 0 0 404-468 0z m48 416l180 0 0 52-180 0z m-54-428l480 0c3 0 6 3 6 6l0 416c0 3-3 6-6 6l-234 0 0 58c0 3-3 6-6 6l-192 0c-3 0-6-3-6-6l0-58-42 0c-3 0-6-3-6-6l0-416c0-3 3-6 6-6z m240 92c-59 0-106 48-106 106 0 59 47 106 106 106 58 0 106-47 106-106 0-58-48-106-106-106m0 224c-65 0-118-53-118-118 0-65 53-118 118-118 65 0 118 53 118 118 0 65-53 118-118 118m192 64l-128 0c-3 0-6-3-6-6 0-3 3-6 6-6l128 0c3 0 6 3 6 6 0 3-3 6-6 6"/>
<glyph glyph-name="car" unicode="&#80;" d="M44 250c0 15 11 26 26 26l384 0c14 0 26-11 26-26l0-128c0-14-12-26-26-26l-384 0c-15 0-26 12-26 26z m77 202l281 0 6-20-292 0z m-8-32l298 0 35-132-369 0z m319-378c0-5-5-10-10-10l-16 0c-6 0-10 5-10 10l0 42 36 0z m-304 0c0-5-5-10-10-10l-16 0c-6 0-10 5-10 10l0 42 36 0z m-96 208l0-128c0-21 17-38 38-38l10 0 0-42c0-12 10-22 22-22l16 0c12 0 22 10 22 22l0 42 244 0 0-42c0-12 10-22 22-22l16 0c12 0 22 10 22 22l0 42 10 0c21 0 38 17 38 38l0 128c0 19-15 35-34 38l-46 172c0 0 0 0 0 0 0 0 0 1-1 1 0 0 0 1 0 1 0 0-1 0-1 1 0 0-1 0-1 0 0 0 0 1-1 1 0 0-1 0-1 0 0 0 0 0 0 0l-290 0c0 0 0 0 0 0-1 0-1 0-2 0 0 0 0-1-1-1 0 0 0 0-1 0 0-1 0-1 0-1-1 0-1-1-1-1 0 0 0-1 0-1-1 0-1 0-1 0l-46-172c-18-3-33-19-33-38z m86-54c14 0 26-11 26-26 0-14-12-26-26-26-15 0-26 12-26 26 0 15 11 26 26 26m0-64c21 0 38 17 38 38 0 21-17 38-38 38-21 0-38-17-38-38 0-21 17-38 38-38m288 64c14 0 26-11 26-26 0-14-12-26-26-26-15 0-26 12-26 26 0 15 11 26 26 26m0-64c21 0 38 17 38 38 0 21-17 38-38 38-21 0-38-17-38-38 0-21 17-38 38-38m-224 48l160 0c3 0 6 3 6 6 0 3-3 6-6 6l-160 0c-3 0-6-3-6-6 0-3 3-6 6-6m0-32l160 0c3 0 6 3 6 6 0 3-3 6-6 6l-160 0c-3 0-6-3-6-6 0-3 3-6 6-6m123 239l32-55c1-2 3-3 5-3 1 0 2 0 3 1 2 1 3 5 2 7l-32 56c-2 3-5 4-8 2-3-2-4-5-2-8m56-26c1-1 3-2 5-2 1 0 2 0 3 0 2 2 3 5 2 8l-16 28c-2 3-5 4-8 2-3-2-4-5-2-8z m-301-47l0 32c0 3-3 6-6 6-3 0-6-3-6-6l0-32c0-3 3-6 6-6 3 0 6 3 6 6m416 0l0 32c0 3-3 6-6 6-3 0-6-3-6-6l0-32c0-3 3-6 6-6 3 0 6 3 6 6"/>
<glyph glyph-name="card" unicode="&#81;" d="M496 340l-468 0 0-36 468 0z m0 12l0 26c0 15-12 26-26 26l-416 0c-15 0-26-11-26-26l0-26z m0-60l-468 0 0-170c0-14 11-26 26-26l416 0c14 0 26 12 26 26z m-26-208l-416 0c-21 0-38 17-38 38l0 256c0 21 17 38 38 38l416 0c21 0 38-17 38-38l0-256c0-21-17-38-38-38z"/>
<glyph glyph-name="cart" unicode="&#82;" d="M416 68c-14 0-26-11-26-26 0-14 12-26 26-26 14 0 26 12 26 26 0 15-12 26-26 26m-275 128l8-32c8-38 21-52 48-52l267 0 0-12-267 0c-33 0-50 18-60 62l-37 158-41 164-43 0 0 12 48 0c3 0 5-2 6-4l27-113 0 0 14-57 18-75c10-38 25-55 48-55l248 0c22 0 35 13 39 39l25 173-345 0 0 12 352 0c2 0 3-1 4-2 1-1 2-3 2-5l-26-180c-7-40-31-49-51-49l-248 0c-14 0-26 6-36 16z m275-192c-21 0-38 17-38 38 0 21 17 38 38 38 21 0 38-17 38-38 0-21-17-38-38-38z m-216 64c-14 0-26-11-26-26 0-14 12-26 26-26 14 0 26 12 26 26 0 15-12 26-26 26z m0-64c-21 0-38 17-38 38 0 21 17 38 38 38 21 0 38-17 38-38 0-21-17-38-38-38z"/>
<glyph glyph-name="chip-01" unicode="&#83;" d="M496 42c0-14-12-26-26-26l-416 0c-15 0-26 12-26 26l0 318 124 124 318 0c14 0 26-11 26-26z m-26 454l-320 0c-2 0-3-1-4-2l-128-128c-1-1-2-2-2-4l0-320c0-21 17-38 38-38l416 0c21 0 38 17 38 38l0 416c0 21-17 38-38 38z m-166-288l-84 0 0 56 28 28 56 0z m102 224l-224 0c-2 0-3-1-4-2l-96-96c-1-1-2-2-2-4l0-224c0-21 17-38 38-38l320 0 0 12-320 0c-15 0-26 12-26 26l0 222 92 92 222 0c14 0 26-11 26-26l0-224c0-14-12-26-26-26l-240 0c-6 0-10 5-10 10l0 142 60 60 142 0c5 0 10-4 10-10l0-80c0-5-5-10-10-10l-42 0 0 42c0 3-3 6-6 6l-64 0c-2 0-3-1-4-2l-32-32c0 0 0 0 0 0-1-1-2-2-2-4 0 0 0 0 0 0l0-64c0-3 3-6 6-6l96 0c3 0 6 3 6 6l0 42 42 0c12 0 22 10 22 22 0 0 0 0 0 0l0 80c0 12-10 22-22 22l-144 0c-2 0-3-1-4-2l-64-64c-1-1-2-2-2-4l0-144c0-12 10-22 22-22l240 0c21 0 38 17 38 38l0 224c0 21-17 38-38 38z"/>
<glyph glyph-name="chip-02" unicode="&#84;" d="M470 64l-106 0 0 84 132 0 0-58c0-14-12-26-26-26z m-442 26l0 58 132 0 0-84-106 0c-15 0-26 12-26 26z m26 346l106 0 0-84-132 0 0 58c0 15 11 26 26 26z m442-26l0-58-132 0 0 84 106 0c14 0 26-11 26-26z m-132-250l132 0 0 84-132 0z m0 96l132 0 0 84-132 0z m-192-192l180 0 0 372-180 0z m-144 96l132 0 0 84-132 0z m0 96l132 0 0 84-132 0z m442 192l-416 0c-21 0-38-17-38-38l0-320c0-21 17-38 38-38l416 0c21 0 38 17 38 38l0 320c0 21-17 38-38 38z"/>
<glyph glyph-name="clip" unicode="&#85;" d="M83 92l-1 0c-24 0-45 13-57 33-6 10-9 21-9 32 0 24 13 47 33 59l327 188c14 8 30 12 46 12 31-1 58-17 74-44 8-14 12-30 12-47-1-30-18-58-44-73l-267-154-6 10 267 154c23 13 37 37 38 64 0 14-3 28-10 40-14 23-38 38-64 38-14 1-28-3-41-10l-326-188c-17-10-28-29-27-48 0-10 2-19 7-27 10-17 28-28 47-28 10 0 20 3 28 8l251 144c10 6 17 17 17 29 0 6-2 12-5 17-6 10-16 17-28 17-6 0-12-1-18-4l-191-111-5 10 191 111c7 4 15 6 23 6 16-1 30-9 38-23 4-7 6-15 6-23 0-16-8-31-22-39l-251-144c-10-6-22-9-33-9"/>
<glyph glyph-name="cloud-download" unicode="&#86;" d="M256 40l0 258 12 0 0-258 92 92 8-8-106-106-106 106 8 8z m153 129c0 0-2 0-2 0-3 0-6 3-6 6 1 3 3 5 6 5 0 0 1 0 1 0 49 0 88 39 88 88 0 45-35 84-81 87-3 0-5 2-6 5-3 61-53 108-113 108-44 0-85-25-104-65-1-3-4-4-7-3-14 5-28 8-43 8-63 0-114-51-114-114 0-57 42-106 98-114 3 0 5-3 5-6 0-3-3-6-6-5-62 8-109 62-109 125 0 69 56 126 126 126 14 0 29-3 42-8 22 42 65 68 112 68 65 0 119-50 125-114 49-6 87-48 87-98 0-55-45-99-99-99z"/>
<glyph glyph-name="cloud-foundry" unicode="&#87;" d="M462 256l34 0 0 34-34 0z m-56-240l23 0c38 0 67 29 67 67 0 37-28 63-67 63-4 0-7 3-7 7 0 74-56 153-141 153-53 0-92-25-122-78-2-3-5-4-8-3-6 1-11 1-17 1-57 0-104-49-104-106 0-57 46-104 104-104l18 0 0 41c0 4 3 7 7 7l48 0c4 0 7-3 7-7l0-41 130 0 0 41c0 4 3 7 7 7l48 0c4 0 7-3 7-7z m-55-14l-144 0c0 0 0 0 0 0l-48 0c0 0 0 0 0 0l-25 0c-65 0-118 53-118 118 0 70 63 128 133 119 32 55 74 81 132 81 90 0 152-82 155-160 43-3 74-35 74-77 0-45-36-81-81-81l-30 0c0 0 0 0 0 0l-48 0c0 0 0 0 0 0z m152 240l-48 0c-4 0-7 3-7 7l0 48c0 4 3 7 7 7l48 0c4 0 7-3 7-7l0-48c0-4-3-7-7-7z m-473 110l34 0 0 34-34 0z m41-14l-48 0c-4 0-7 3-7 7l0 48c0 4 3 7 7 7l48 0c4 0 7-3 7-7l0-48c0-4-3-7-7-7z m279 14l34 0 0 34-34 0z m41-14l-48 0c-4 0-7 3-7 7l0 48c0 4 3 7 7 7l48 0c4 0 7-3 7-7l0-48c0-4-3-7-7-7z m-233 110l34 0 0 34-34 0z m41-14l-48 0c-4 0-7 3-7 7l0 48c0 4 3 7 7 7l48 0c4 0 7-3 7-7l0-48c0-4-3-7-7-7z m-33-418l34 0 0 34-34 0z m0 112l34 0 0 34-34 0z m41-14l-48 0c-4 0-7 3-7 7l0 48c0 4 3 7 7 7l48 0c4 0 7-3 7-7l0-48c0-4-3-7-7-7z m47 14l34 0 0 34-34 0z m41-14l-48 0c-4 0-7 3-7 7l0 48c0 4 3 7 7 7l48 0c4 0 7-3 7-7l0-48c0-4-3-7-7-7z m63-98l34 0 0 34-34 0z m104 432l34 0 0 34-34 0z m41-14l-48 0c-4 0-7 3-7 7l0 48c0 4 3 7 7 7l48 0c4 0 7-3 7-7l0-48c0-4-3-7-7-7z"/>
<glyph glyph-name="cloud-upload" unicode="&#88;" d="M256 300l-92-92-8 8 106 106 106-106-8-8-92 92 0-258-12 0z m153-147c0 0-2 0-2 0-3 0-6 3-6 6 1 3 3 5 6 5 0 0 1 0 1 0l0 0c49 0 88 40 88 88 0 45-35 84-81 87-3 0-5 2-6 5-3 61-53 108-113 108-44 0-85-25-104-65-1-3-4-4-7-3-14 5-28 8-43 8-63 0-114-51-114-114 0-57 42-106 98-114 3 0 5-3 5-6 0-3-3-6-6-5-62 8-109 62-109 125 0 69 56 126 126 126 14 0 29-3 42-8 22 42 65 68 112 68 65 0 119-50 125-114 49-6 87-48 87-98 0-55-45-99-99-99z"/>
<glyph glyph-name="cloudy" unicode="&#89;" d="M33 212c-2 0-4 1-5 3-8 12-12 27-12 41 0 42 34 76 75 76 11 0 21-2 30-6 10 61 63 106 125 106 51 0 96-29 116-75 8 2 16 3 24 3 49 0 90-40 90-90 0-3-3-6-6-6-3 0-6 3-6 6 0 43-35 78-78 78-9 0-17-1-25-4-3-1-6 1-7 3-18 45-60 73-108 73-59 0-109-44-114-103 0-2-1-4-3-5-2-1-4-1-6 0-9 6-20 9-32 9-35 0-63-29-63-65 0-12 3-24 10-35 1-2 1-6-2-8-1 0-2-1-3-1z m90-3c-35 0-63-29-63-65 0-35 28-64 63-64l295 0c43 0 78 35 78 78 0 43-35 78-78 78-9 0-17-1-25-4-3-1-6 0-7 3-18 45-60 73-108 73-59 0-109-44-114-103 0-2-1-4-3-5-2-1-4-1-6 0-9 6-20 9-32 9z m295-141l-295 0c-41 0-75 35-75 76 0 42 34 76 75 76 11 0 21-2 30-6 10 61 63 106 125 106 51 0 96-29 116-75 8 2 16 3 24 3 49 0 90-40 90-90 0-49-41-90-90-90z"/>
<glyph glyph-name="computing-01" unicode="&#90;" d="M379 48c-40-23-84-33-127-31l164 94c3 2 4 5 2 8-1 3-5 4-8 2l-178-103c-70 9-135 49-173 115-2 3-3 6-4 9l163-95c1 0 2-1 3-1 2 0 4 1 5 3 2 3 1 7-2 8l-178 103c-30 72-22 152 18 216l0-190c0-3 3-5 6-5 3 0 6 2 6 5l0 206c18 24 41 45 69 61 36 21 76 32 116 32 4 0 7 0 11-1l-165-94c-2-2-3-5-2-8 1-2 3-3 5-3 1 0 2 0 3 1l179 103c10-2 20-4 30-6 61-17 111-55 143-109 1-3 2-6 4-9l-164 95c-3 1-6 0-8-2-1-3 0-7 2-8l179-103c30-72 21-153-18-216l0 189c0 4-3 6-6 6-3 0-6-2-6-6l0-206c-18-24-41-44-69-60m109 298c0 0 0 1-1 2-3 8-8 17-12 25-33 57-86 98-150 115-11 3-21 5-32 6-1 0-2 1-3 0-52 6-105-4-151-31-57-33-98-86-115-149-14-53-10-109 11-159 1-1 1-1 1-2 4-9 8-17 13-25 40-70 109-112 183-121 1 0 1-1 1-1 0 0 0 0 0 0 10-1 20-1 29-1 42 0 84 10 123 33 108 62 151 195 103 308"/>
<glyph glyph-name="computing-02" unicode="&#48;" d="M379 48c-40-23-84-33-127-31l164 94c3 2 4 5 2 8-2 3-5 4-8 2l-178-103c-70 9-135 50-173 115-2 3-3 6-5 9l164-95c1 0 2-1 3-1 2 0 4 1 5 3 2 3 1 7-2 8l-178 103c-30 72-22 152 18 216l0-190c0-3 2-5 6-5 3 0 5 2 5 5l0 206c19 24 42 45 69 61 37 21 77 32 117 32 4 0 7 0 10-1l-164-94c-3-2-3-5-2-8 1-2 3-3 5-3 1 0 2 0 3 1l179 103c10-2 20-4 30-6 61-17 111-55 142-109 2-3 3-6 5-9l-164 95c-3 1-6 0-8-2-1-3-1-7 2-8l178-103c31-72 22-153-18-216l0 189c0 4-2 6-5 6-4 0-6-2-6-6l0-206c-18-24-42-44-69-60m109 298c0 0-1 1-1 2-4 8-8 17-13 25-32 57-85 98-149 115-11 3-22 5-33 6-1 0-2 0-3 0-52 6-104-4-150-31-109-62-151-195-104-308 0-1 1-1 1-2 4-8 8-17 13-25 40-70 109-112 183-121 0 0 1-1 1-1 0 0 0 0 0 0 10-1 19-1 29-1 42 0 84 10 122 33 109 62 151 195 104 308m-138-26c3 0 5-2 5-6l0-144c0-3-2-5-5-5l-176 0c-4 0-6 2-6 5l0 144c0 4 2 6 6 6l42 0 0 10c0 4 2 6 6 6 3 0 5-2 5-6l0-10 69 0 0 10c0 4 2 6 6 6 3 0 5-2 5-6l0-10z m-6-144l0 133-37 0 0-11c0-3-2-5-5-5-4 0-6 2-6 5l0 11-69 0 0-11c0-3-2-5-5-5-4 0-6 2-6 5l0 11-37 0 0-133z"/>
<glyph glyph-name="cylinder" unicode="&#49;" d="M379 304l85 0 0 100-85 0z m42-288c-23 0-42 19-42 42l0 234 85 0 0-234c0-23-19-42-43-42z m-42 400l85 0 0 68-85 0z m-160-272l85 0 0 260-85 0z m42-128c-23 0-42 19-42 42l0 74 85 0 0-74c0-23-19-42-43-42z m-42 400l85 0 0 68-85 0z m-160-176l85 0 0 164-85 0z m42-224c-23 0-42 19-42 42l0 170 85 0 0-170c0-23-19-42-43-42z m-42 400l85 0 0 68-85 0z m443 0l-27 0 0 68 11 0c3 0 6 3 6 6 0 3-3 6-6 6l-128 0c-3 0-6-3-6-6 0-3 3-6 6-6l10 0 0-68-53 0 0 68 11 0c3 0 6 3 6 6 0 3-3 6-6 6l-128 0c-3 0-6-3-6-6 0-3 3-6 6-6l10 0 0-68-53 0 0 68 11 0c3 0 6 3 6 6 0 3-3 6-6 6l-128 0c-3 0-6-3-6-6 0-3 3-6 6-6l10 0 0-68-26 0c-3 0-6-3-6-6 0-3 3-6 6-6l26 0 0-346c0-29 24-54 53-54 30 0 54 25 54 54l0 346 53 0 0-346c0-29 24-54 53-54 30 0 54 25 54 54l0 346 53 0 0-346c0-29 24-54 53-54 30 0 54 25 54 54l0 346 27 0c3 0 6 3 6 6 0 3-3 6-6 6z"/>
<glyph glyph-name="delete" unicode="&#50;" d="M86 484c-15 0-30-5-41-17-23-22-23-59 0-82l124-124c2-3 2-6 0-9l-124-124c-23-23-23-60 0-82 22-23 59-23 82 0l124 124c3 2 6 2 9 0l124-124c11-11 26-17 41-17 16 0 30 6 41 17 23 22 23 59 0 82l-124 124c-2 3-2 6 0 9l124 124c23 23 23 60 0 82-11 11-25 17-41 17-15 0-30-6-41-17l-124-124c-3-2-6-2-9 0l-124 124c-11 12-26 17-41 17m0-467c-18 0-36 7-50 21-27 27-27 71 0 98l121 121-121 120c-27 27-27 71 0 99 28 27 72 27 99 0l120-121 121 121c13 13 30 20 49 20 19 0 36-7 49-20 28-28 28-72 0-99l-120-120 120-121c28-27 28-71 0-98-13-14-30-21-49-21-19 0-36 7-49 21l-121 120-120-120c-14-14-31-21-49-21"/>
<glyph glyph-name="delete-circle" unicode="&#51;" d="M183 356c-7 0-14-3-19-8-10-10-10-27 0-37l57-57c1-1 1-2 1-4 0-1 0-3-1-4l-57-56c-10-11-10-27 0-38 10-10 27-10 37 0l57 57c1 1 2 2 4 2 1 0 3-1 4-2l56-57c11-10 27-10 38 0 10 11 10 27 0 38l-57 56c-1 1-2 3-2 4 0 2 1 3 2 4l57 57c10 10 10 27 0 37-11 10-27 10-38 0l-56-57c-2-2-6-2-8 0l-57 57c-5 5-12 8-18 8m0-223c-10 0-20 4-27 11-15 15-15 39 0 54l52 52-52 53c-15 14-15 38 0 53 15 15 39 15 53 0l53-52 52 52c15 15 39 15 54 0 14-15 14-39 0-53l-53-53 53-52c14-15 14-39 0-54-15-14-39-14-54 0l-52 53-53-53c-7-7-17-11-26-11z m79 351c-129 0-234-105-234-234 0-129 105-234 234-234 129 0 234 105 234 234 0 129-105 234-234 234z m0-480c-136 0-246 111-246 246 0 136 110 246 246 246 135 0 246-110 246-246 0-135-111-246-246-246z"/>
<glyph glyph-name="devops" unicode="&#52;" d="M393 392l57 0 29-49-29-50-57 0-29 50z m-132-44l93 0 30 53c1 2 3 3 5 3l64 0c3 0 4-1 5-3l32-56c1-1 1-4 0-5l-32-56c-1-2-2-3-5-3l-64 0c-2 0-4 1-5 3l-30 53-93 0c-3 0-5 2-5 6 0 3 2 5 5 5z m-28 136l-29-49 29-50 57 0 29 50-29 49z m-54-193c-3 2-4 5-2 8l46 80-30 53c-1 2-1 4 0 6l32 55c1 2 3 3 5 3l64 0c2 0 4-1 5-3l32-55c1-2 1-4 0-6l-32-55c-1-2-3-3-5-3l-61 0-46-81c-1-1-3-3-5-3-1 0-2 1-3 1z m-106 101l-29-49 29-50 57 0 29 50-29 49z m-8-108l-32 56c-1 1-1 4 0 5l32 56c1 2 3 3 5 3l64 0c2 0 4-1 5-3l32-56c1-1 1-4 0-5l-31-53 47-80c1-3 0-6-2-8-1-1-2-1-3-1-2 0-4 1-5 3l-47 80-60 0c-2 0-4 1-5 3z m65-176l29 50-29 50-57 0-29-50 29-50z m132 44l-93 0-30-52c-1-2-3-3-5-3l-64 0c-2 0-4 1-5 3l-32 55c-1 2-1 4 0 6l32 55c1 2 3 3 5 3l64 0c2 0 4-1 5-3l30-52 93 0c3 0 6-3 6-6 0-3-3-6-6-6z m28-136l29 50-29 49-57 0-29-49 29-50z m54 193c3-1 4-5 3-8l-47-80 31-52c1-2 1-4 0-6l-32-56c-1-1-3-3-5-3l-64 0c-2 0-4 2-5 3l-32 56c-1 2-1 4 0 6l32 55c1 2 3 3 5 3l60 0 47 80c1 3 5 4 7 2z m106-101l29 50-29 50-57 0-29-50 29-50z m8 108l32-55c1-2 1-4 0-6l-32-55c-1-2-2-3-5-3l-64 0c-2 0-4 1-5 3l-32 55c-1 2-1 4 0 6l31 52-47 81c-1 2 0 6 3 7 2 2 6 1 7-2l47-80 60 0c3 0 4-1 5-3z"/>
<glyph glyph-name="digital" unicode="&#53;" d="M192 418l0 64 12 0 0-64z m-130 66c-19 0-34-15-34-34 0-19 15-34 34-34 19 0 34 15 34 34 0 19-15 34-34 34z m0-80c-25 0-46 21-46 46 0 25 21 46 46 46 25 0 46-21 46-46 0-25-21-46-46-46z m-6-114l0 64 12 0 0-64z m6-78c-19 0-34-15-34-34 0-19 15-34 34-34 19 0 34 15 34 34 0 19-15 34-34 34z m0-80c-25 0-46 21-46 46 0 25 21 46 46 46 25 0 46-21 46-46 0-25-21-46-46-46z m-6-114l0 64 12 0 0-64z m286 466c-19 0-34-15-34-34 0-19 15-34 34-34 19 0 34 15 34 34 0 19-15 34-34 34z m0-80c-25 0-46 21-46 46 0 25 21 46 46 46 25 0 46-21 46-46 0-25-21-46-46-46z m-6-114l0 64 12 0 0-64z m6-78c-19 0-34-15-34-34 0-19 15-34 34-34 19 0 34 15 34 34 0 19-15 34-34 34z m0-80c-25 0-46 21-46 46 0 25 21 46 46 46 25 0 46-21 46-46 0-25-21-46-46-46z m-6-114l0 64 12 0 0-64z m126 66c-19 0-34-15-34-34 0-19 15-34 34-34 19 0 34 15 34 34 0 19-15 34-34 34z m0-80c-25 0-46 21-46 46 0 25 21 46 46 46 25 0 46-21 46-46 0-25-21-46-46-46z m-6 142l0 64 12 0 0-64z m6 210c-19 0-34-15-34-34 0-19 15-34 34-34 19 0 34 15 34 34 0 19-15 34-34 34z m0-80c-25 0-46 21-46 46 0 25 21 46 46 46 25 0 46-21 46-46 0-25-21-46-46-46z m-6 142l0 64 12 0 0-64z m-258-334c-19 0-34-15-34-34 0-19 15-34 34-34 19 0 34 15 34 34 0 19-15 34-34 34z m0-80c-25 0-46 21-46 46 0 25 21 46 46 46 25 0 46-21 46-46 0-25-21-46-46-46z m-6 142l0 64 12 0 0-64z m6 210c-19 0-34-15-34-34 0-19 15-34 34-34 19 0 34 15 34 34 0 19-15 34-34 34z m0-80c-25 0-46 21-46 46 0 25 21 46 46 46 25 0 46-21 46-46 0-25-21-46-46-46z"/>
<glyph glyph-name="dna" unicode="&#54;" d="M368 256l-212 0c1 14 5 26 13 36l184 0c8-10 13-22 15-36z m-199-48c-8 11-12 23-13 36l212 0c-1-13-5-25-12-36z m68-90c2 2 3 5 2 8-2 3-5 4-8 2-33-17-64-38-79-67 0 0 0 0 0-1-5-10-8-22-8-35l0-15c0-3 3-6 6-6 3 0 6 3 6 6l0 15c0 10 1 19 5 27l202 0c3-8 5-17 5-27l0-15c0-3 3-6 6-6 3 0 6 3 6 6l0 15c0 13-3 25-8 35-1 0-1 1-1 1-18 37-63 59-107 81-33 17-65 33-85 54l168 0c-14-14-34-27-60-40-3-1-4-5-2-8 1-2 3-3 5-3 1 0 2 1 2 1 45 22 88 48 88 103 0 0 0 1 0 1 0 0 0 0 0 0 0 0 0 1 0 1-1 20-8 36-19 50-1 1-1 1-1 1-22 27-59 46-96 64-41 21-80 41-98 70l191 0c-13-21-38-38-70-55-3-2-4-5-2-8 1-2 3-3 5-3 1 0 2 0 3 1 33 18 65 39 79 69 0 0 0 0 1 0 4 10 7 21 7 33l0 17c0 3-3 6-6 6-3 0-6-3-6-6l0-17c0-9-2-17-5-25l-203 0c-3 8-4 16-4 25l0 17c0 3-3 6-6 6-3 0-6-3-6-6l0-17c0-12 3-23 7-33 0 0 0 0 1-1 17-37 63-60 107-83 32-16 63-32 84-52l-164 0c13 14 33 26 57 38 3 2 4 5 3 8-1 3-5 4-8 2-44-22-86-48-87-101 0-1 0-1 0-1 0 0 0 0 0 0 0 0 0 0 0-1 0-19 7-36 17-50 1 0 1-1 1-1 22-28 60-47 97-66 40-20 79-40 97-68l-189 0c14 21 38 37 70 54z"/>
<glyph glyph-name="docker" unicode="&#55;" d="M198 150c6 0 12-5 12-12 0-6-6-12-12-12-7 0-12 6-12 12 0 7 5 12 12 12z m256 76c17 0 32 8 41 21-9 13-23 21-40 21-3 0-5 3-5 6l0 0c0 17-9 32-23 41-14-9-22-24-22-41 0-13 6-26 16-36 2-1 2-4 1-6-1-2-3-4-5-4l-389 0 0-8c0-42 17-80 44-108 35 0 69 4 91 11 3 1 7-1 7-4 1-3 0-6-3-7-22-6-51-10-83-11 28-23 64-37 103-37 136 0 248 95 253 156 0 3 3 6 6 6z m-346 14l52 0 0 52-52 0z m63 64l53 0 0 52-53 0z m65 64l52 0 0 52-52 0z m64-128l52 0 0 52-52 0z m-128 0l52 0 0 52-52 0z m64 64l52 0 0 52-52 0z m0-64l52 0 0 52-52 0z m271 10c1-2 1-4 0-6-11-18-31-30-53-30l-3 0c-11-67-123-162-264-162-47 0-90 19-121 50-1 0-1 1-2 1-29 30-48 72-48 117l0 14c0 2 1 3 2 4 1 1 2 2 4 2l74 0 0 58c0 3 3 6 6 6l58 0 0 58c0 3 3 6 6 6l58 0 0 58c0 3 3 6 6 6l64 0c3 0 6-3 6-6l0-122 58 0c3 0 6-3 6-6l0-58 40 0c-7 10-11 22-11 34 0 22 12 42 32 53 1 0 3 0 5 0 18-10 29-28 31-48 19-2 36-12 46-29z"/>
<glyph glyph-name="document-01" unicode="&#56;" d="M348 236l0-124 124 0z m132-136l-138 0c-3 0-6 3-6 6l0 138-324 0 0-234c0-3-3-6-6-6-3 0-6 3-6 6l0 240c0 3 3 6 6 6l336 0c1 0 3-1 4-2l144-144c0 0 0 0 0 0 1-1 2-3 2-4l0-96c0-3-3-6-6-6-3 0-6 3-6 6z m6 192l-480 0c-3 0-6 3-6 6l0 192c0 3 3 6 6 6 3 0 6-3 6-6l0-186 468 0 0 186c0 3 3 6 6 6 3 0 6-3 6-6l0-192c0-3-3-6-6-6z"/>
<glyph glyph-name="document-02" unicode="&#57;" d="M91 16l369 0c20 0 36 16 36 36l0 80-388 0 0-79c0-15-7-28-17-37z m-63 468l0-432c0-11 3-20 10-27 7-6 15-9 24-9l0 0c0 0 1 0 1 0 18 1 33 17 33 37l0 85c0 3 3 6 6 6l314 0 0 340z m34-480c-12 0-23 5-32 13-9 9-14 21-14 35l0 438c0 3 3 6 6 6l400 0c3 0 6-3 6-6l0-346 74 0c3 0 6-3 6-6l0-86c0-26-22-48-48-48z m280 208l32 0 0 12-32 0z m-273 192l209 0 0 12-209 0z m273 0l32 0 0 12-32 0z m-273-64l209 0 0 12-209 0z m273 0l32 0 0 12-32 0z m-273-64l209 0 0 12-209 0z m273 0l32 0 0 12-32 0z m-273-64l209 0 0 12-209 0z"/>
<glyph glyph-name="document-image" unicode="&#33;" d="M246 132l-138 0 0-116 372 0 0 372-90 0c-3 0-6 3-6 6l0 90-276 0 0-100 138 0c3 0 6-3 6-6l0-42 170 0c3 0 6-3 6-6 0-3-3-6-6-6l-170 0 0-52 170 0c3 0 6-3 6-6 0-3-3-6-6-6l-170 0 0-52 170 0c3 0 6-3 6-6 0-3-3-6-6-6l-170 0 0-52 170 0c3 0 6-3 6-6 0-3-3-6-6-6z m150 344l0-76 76 0z m-300-344l-90 0c-3 0-6 3-6 6l0 240c0 3 3 6 6 6l90 0 0 106c0 3 3 6 6 6l288 0c1 0 3-1 4-2l96-96c1-1 2-2 2-4l0-384c0-3-3-6-6-6l-384 0c-3 0-6 3-6 6z m144 51l-58 59-27-29c-1-1-3-1-4-1-2-1-3 0-5 1l-76 77-58-58 0-88 228 0z m0 16l0 173-228 0 0-124 54 54c2 2 6 2 8 0l76-76 28 28c1 1 3 2 4 2 1 0 3-1 4-2z m118-131l-192 0c-3 0-6 3-6 6 0 3 3 6 6 6l192 0c3 0 6-3 6-6 0-3-3-6-6-6z m-200 272c-10 0-19-8-19-18 0-10 9-18 19-18 10 0 18 8 18 18 0 10-8 18-18 18z m0-48c-17 0-30 14-30 30 0 17 13 30 30 30 16 0 29-13 29-30 0-16-13-30-29-30z"/>
<glyph glyph-name="download" unicode="&#34;" d="M236 234l262 262 8-8-262-262 130 0 0-12-150 0 0 150 12 0z m202-228l-384 0c-21 0-38 17-38 38l0 384c0 21 17 38 38 38l208 0 0-12-208 0c-15 0-26-12-26-26l0-384c0-15 11-26 26-26l384 0c14 0 26 11 26 26l0 208 12 0 0-208c0-21-17-38-38-38z"/>
<glyph glyph-name="electronic-charger" unicode="&#35;" d="M304 346c0 30-23 55-52 58l0-394c0-3-3-6-6-6l-224 0c-3 0-6 3-6 6l0 448c0 21 17 38 38 38l160 0c21 0 38-17 38-38l0-42c35-3 64-33 64-70l0-176c0-32 26-58 58-58 32 0 58 26 58 58l0 123c-36 3-64 33-64 69l0 80c0 3 3 6 6 6l26 0 0 42c0 3 3 6 6 6 3 0 6-3 6-6l0-42 52 0 0 42c0 3 3 6 6 6 3 0 6-3 6-6l0-42 26 0c3 0 6-3 6-6l0-32c0 0 0 0 0 0 0 0 0 0 0 0l0-48c0-36-29-66-64-69l0-123c0-38-32-70-70-70-39 0-70 32-70 70z m192 58l-116 0 0-42c0-32 26-58 58-58 0 0 0 0 0 0 32 0 58 26 58 58z m0 12l0 20-116 0 0-20z m-468-400l212 0 0 442c0 15-12 26-26 26l-160 0c-15 0-26-11-26-26z m90 145c-1 0-2 1-3 1-3 2-4 5-2 8l43 74-54 0c-2 0-4 2-5 3-1 2-1 4 0 6l48 83c1 3 5 4 8 2 2-1 3-5 2-8l-43-74 54 0c2 0 4-1 5-3 1-2 1-4 0-6l-48-83c-1-2-3-3-5-3z"/>
<glyph glyph-name="elevator" unicode="&#36;" d="M262 330c10 0 18-8 18-18 0-10-8-18-18-18-10 0-18 8-18 18 0 10 8 18 18 18m0-48c-17 0-30 14-30 30 0 16 13 30 30 30 16 0 30-14 30-30 0-16-14-30-30-30z m-246-266l0 480 12 0 0-480z m480 0l0 480 12 0 0-480z m-126 469l8-9-52-52-52 52 8 8 44-44z m-128-57l-44 44-44-44-8 9 52 51 52-52z m-134-406l308 0 0 356-308 0z m-12 362c0 3 3 6 6 6l320 0c3 0 6-3 6-6l0-368c0-3-3-6-6-6l-320 0c-3 0-6 3-6 6z m169-126c28-1 50-27 50-56l0-36c0-16-9-29-23-35l-2-1 0-82-12 0 0 86c0 2 2 4 4 5l5 2c10 4 17 14 17 25l0 36c0 23-18 43-40 44-11 1-23-3-31-11-9-8-13-19-13-30l0-39c0-11 6-21 16-25l5-2c2-1 4-3 4-5l0-86-11 0 0 82-2 1c-14 6-24 19-24 35l0 39c0 14 6 28 17 38 11 11 25 16 40 15z"/>
<glyph glyph-name="engine" unicode="&#37;" d="M496 64l-187 0-26 45c0 0-1 0-1 1 0 0 0 0-1 1 0 0 0 0 0 0-1 0-1 1-1 1-1 0-1 0-2 0 0 0 0 0 0 0l-202 0 0 276 372 0 0-90c0-3 3-6 6-6l42 0z m6 240l-42 0 0 90c0 3-3 6-6 6l-170 0 0 36 90 0c3 0 6 3 6 6 0 3-3 6-6 6l-192 0c-3 0-6-3-6-6 0-3 3-6 6-6l90 0 0-36-202 0c-3 0-6-3-6-6l0-138-36 0 0 92c0 3-3 5-6 5-3 0-6-2-6-5l0-195c0-3 3-6 6-6 3 0 6 3 6 6l0 91 36 0 0-138c0-3 3-6 6-6l204 0 26-45c1 0 1 0 1 0 0-1 1-1 1-1 0-1 1-1 1-1 1 0 2-1 2-1l197 0c3 0 6 3 6 6l0 240c0 3-3 6-6 6z m-112-96l-256 0c-3 0-6-3-6-6 0-3 3-6 6-6l256 0c3 0 6 3 6 6 0 3-3 6-6 6m-128 116c14 0 26-11 26-26 0-14-12-26-26-26-15 0-26 12-26 26 0 15 11 26 26 26m0-64c21 0 38 17 38 38 0 21-17 38-38 38-21 0-38-17-38-38 0-21 17-38 38-38m96 12c-15 0-26 12-26 26 0 15 11 26 26 26 14 0 26-11 26-26 0-14-12-26-26-26m0 64c-21 0-38-17-38-38 0-21 17-38 38-38 21 0 38 17 38 38 0 21-17 38-38 38m-192-12c14 0 26-11 26-26 0-14-12-26-26-26-15 0-26 12-26 26 0 15 11 26 26 26m0-64c21 0 38 17 38 38 0 21-17 38-38 38-21 0-38-17-38-38 0-21 17-38 38-38"/>
<glyph glyph-name="europe-africa" unicode="&#38;" d="M192 474l3-15c1-2 0-4-2-5l-69-54 8-32 21 0c6 0 10 1 12 4 5 8 13 12 22 12l104 0c2 0 4-1 5-3l43-80c1-2 1-4 0-5l-15-32c-1-2-3-4-5-4l-63 0c-3 0-4 2-5 4l-25 44-88 0-31-99 31-66 93-15c2-1 5-3 5-6l0-84 42-21c61 4 115 31 154 73l0 106-39 0c-2 0-4 1-5 3l-39 56c-1 2-1 5 0 7l28 40c1 1 3 2 5 2 1 0 3-1 4-2l47-60 21 5c15 4 34 8 42 11-4 125-108 226-234 226-24 0-48-3-70-10z m-11-4c-89-33-153-119-153-220 0-126 100-229 225-234l-26 13c-2 1-3 3-3 5l0 83-91 16c-2 0-4 1-4 3l-33 70c-1 1-1 3 0 4l32 106c1 2 3 4 6 4l96 0c2 0 4-1 5-3l24-45 56 0 12 26-40 74-100 0c-5 0-10-2-13-6-5-8-14-10-21-10l-26 0c-3 0-5 2-5 5l-10 40c0 2 0 4 2 6l69 54z m315-224c-8-2-20-5-39-10l-25-6c-2-1-4 0-6 2l-44 57-21-31 35-50 42 0c3 0 6-3 6-6l0-99c31 39 51 89 52 143z m-234-242c-136 0-246 111-246 246 0 136 110 246 246 246 135 0 246-110 246-246 0-135-111-246-246-246z"/>
<glyph glyph-name="expand" unicode="&#39;" d="M28 24l150 150 8-8-150-150 130 0 0-12-150 0 0 150 12 0z m460-8l-150 150 8 8 150-150 0 130 12 0 0-150-150 0 0 12z m-452 468l150-150-8-8-150 150 0-130-12 0 0 150 150 0 0-12z m460-8l-150-150-8 8 150 150-130 0 0 12 150 0 0-150-12 0z"/>
<glyph glyph-name="eye" unicode="&#40;" d="M248 356c-58 0-106-47-106-106 0-58 48-106 106-106 59 0 106 48 106 106 0 59-47 106-106 106m0-224c-65 0-118 53-118 118 0 65 53 118 118 118 65 0 118-53 118-118 0-65-53-118-118-118m0 168c-28 0-50-22-50-50 0-28 22-50 50-50 28 0 50 22 50 50 0 28-22 50-50 50m0-112c-34 0-62 28-62 62 0 34 28 62 62 62 34 0 62-28 62-62 0-34-28-62-62-62m-220 62c9-18 73-138 220-138 148 0 211 120 220 138-9 18-72 138-220 138-148 0-211-120-220-138m220-150c-166 0-231 146-232 148 0 1 0 3 0 4 1 2 66 148 232 148 167 0 231-146 232-148 0-1 0-3 0-4-1-2-65-148-232-148"/>
<glyph glyph-name="facial-recognition" unicode="&#41;" d="M428 256l58 0c3 0 6-3 6-6l0-240c0-3-3-6-6-6l-240 0c-3 0-6 3-6 6l0 192 12 0 0-186 228 0 0 228-474 0c-3 0-6 3-6 6l0 240c0 3 3 6 6 6l240 0c3 0 6-3 6-6l0-192-12 0 0 186-228 0 0-228 36 0 0 42c0 31 19 59 47 71-10 9-15 21-15 33 0 25 21 46 46 46 25 0 46-21 46-46 0-12-6-24-15-33 28-12 47-40 47-71l0-42 100 0 0 66c0 34 28 62 62 62 34 0 62-28 62-62z m-12 0l0 66c0 28-23 50-50 50-28 0-50-22-50-50l0-66z m-56-125c-6 3-10 8-10 15 0 9 7 16 16 16 9 0 16-7 16-16 0-7-4-12-10-15l0-31c0-4-3-6-6-6-3 0-6 2-6 6z m-168 125l0 42c0 30-20 56-49 64-2 0-4 2-4 5 0 2 1 4 3 5 11 6 18 18 18 30 0 19-15 34-34 34-19 0-34-15-34-34 0-12 6-24 17-30 3-1 4-3 3-5 0-3-2-5-4-5-28-8-48-34-48-64l0-42z"/>
<glyph glyph-name="factory" unicode="&#42;" d="M496 16l-20 0 0 118c0 14-12 26-26 26l-22 0 0 20 23 0c13 0 25-4 33-12 8-8 12-19 12-33z m-32 0l-36 0 0 132 22 0c8 0 14-6 14-14z m-164 0l0 90c0 3-3 6-6 6l-64 0c-3 0-6-3-6-6l0-90-116 0 0 215 92 57 0-54c0-2 1-4 3-5 2-1 4-1 6 0l103 59 0-54c0-2 1-4 3-5 2-1 4-1 6 0l95 59 0-272z m-64 0l52 0 0 84-52 0z m-192 288l52 0 0 100-52 0z m52-288l-52 0 0 276 52 0z m396 160c10-10 16-24 16-41l0-125c0-3-3-6-6-6l-480 0c-3 0-6 3-6 6 0 3 3 6 6 6l10 0 0 394c0 2 1 3 2 4 1 1 2 2 4 2l64 0c3 0 6-3 6-6l0-165 95 58c2 1 4 1 6 0 1-1 3-3 3-5l0-54 103 59c2 1 4 1 6 0 1-1 3-3 3-5l0-53 95 58c2 1 4 1 6 0 1-1 3-3 3-5l0-106 23 0c8 0 27-2 41-16z m-446 277c-13 0-30 7-30 37 0 3 3 6 6 6 3 0 6-3 6-6 0-22 9-25 18-25 18 0 31-16 31-37 0-4-3-6-6-6-3 0-6 2-6 6 0 12-6 25-19 25z m16 31c-3 0-6 3-6 6 0 3 3 6 6 6 27 0 46-18 46-46 0-3-3-6-6-6-3 0-6 3-6 6 0 21-13 34-34 34z m296-292c-3 0-6-3-6-6l0-32c0-3 3-6 6-6 3 0 6 3 6 6l0 32c0 3-3 6-6 6m-64 0c-3 0-6-3-6-6l0-32c0-3 3-6 6-6 3 0 6 3 6 6l0 32c0 3-3 6-6 6m-64 0c-3 0-6-3-6-6l0-32c0-3 3-6 6-6 3 0 6 3 6 6l0 32c0 3-3 6-6 6m-64 0c-3 0-6-3-6-6l0-32c0-3 3-6 6-6 3 0 6 3 6 6l0 32c0 3-3 6-6 6"/>
<glyph glyph-name="factory-car" unicode="&#43;" d="M74 96l0 218 12 0 0-224c0-3-3-6-6-6l-80 0 0 12z m400 16l0 132-187 0-25-43 0-89 85 0c3 27 25 48 53 48 28 0 50-21 53-48z m-74-48c23 0 42 19 42 42 0 24-19 42-42 42-23 0-42-18-42-42 0-23 19-42 42-42z m-217 144l70 0 26 45c0 0 0 0 0 1 0 0 1 0 1 1 0 0 1 0 1 0 0 0 1 1 1 1 0 0 1 0 1 0 0 0 0 0 1 0l106 0 0 180-145 0-39-142 53 30-9 16c-2 3-1 6 2 8 2 2 6 1 8-2l24-42c1-2 0-6-3-8 0 0-1 0-2 0-2 0-4 1-5 3l-10 15-62-36z m67-96l0 84-68 0 0-41c17-7 29-24 31-43z m-90-48c23 0 42 19 42 42 0 24-19 42-42 42-23 0-42-18-42-42 0-23 19-42 42-42z m320 192c3 0 6-3 6-6l0-144c0-3-3-6-6-6l-27 0c-3-26-25-48-53-48-28 0-50 22-53 48l-134 0c-3-26-25-48-53-48-30 0-54 25-54 54 0 15 6 29 16 38l0 250c0 3 3 6 6 6l48 0 0-12-42 0 0-235c8 4 16 7 26 7 4 0 7 0 10-1l0 43c0 0 0 1 0 1 0 0 0 1 0 1l65 240c0 0 0 0 0 0 0 0 0 1 0 1 0 0 1 1 1 1 0 0 0 1 1 1 0 0 0 0 1 0 0 1 0 1 1 1 0 0 0 0 1 0 0 0 0 0 0 0l156 0c3 0 6-3 6-6l0-186z"/>
<glyph glyph-name="farm-car" unicode="&#44;" d="M390 22c-59 0-106 47-106 106 0 59 47 106 106 106 58 0 106-47 106-106 0-59-48-106-106-106z m-115 80l-55 0 0 180 116 0 0-49c-38-20-64-59-64-105 0-9 1-18 3-26z m-23 308l84 0 0-116-115 0z m-32 12l244 0 0 20-244 0z m243-128l-20 0-13 116 20 0z m-115 0l0 116 70 0 13-116z m116-12l0-63c-20 17-46 27-74 27-15 0-29-3-42-8l0 44z m-256-136c-19 40-59 68-106 68-15 0-29-3-42-8l0 76 148 0z m-106-124c-41 0-74 33-74 74 0 41 33 74 74 74 41 0 74-33 74-74 0-41-33-74-74-74z m374 186c19-21 32-49 32-80 0-65-53-118-118-118-52 0-96 34-112 80l-91 0c-3-44-40-80-85-80-48 0-86 39-86 86 0 47 38 86 86 86 45 0 82-36 85-80l21 0c-3 56-50 100-106 100-29 0-56-11-76-32l-8 8c9 10 19 17 30 23l0 87c0 3 3 6 6 6l26 0 0 52-26 0 0 12 32 0c3 0 6-3 6-6l0-58 117 0 32 116-27 0c-3 0-6 3-6 6l0 32c0 3 3 6 6 6l58 0 0 42 12 0 0-42 186 0c3 0 6-3 6-6l0-32c0-3-3-6-6-6l-8 0 13-121c0 0 0-1 0-1 0 0 1 0 1 0z"/>
<glyph glyph-name="fill-16" unicode="&#45;" d="M315 371l-67 132 11 6 66-132z m-243-234c-33 0-60-27-60-60 0-34 27-60 60-60 33 0 60 26 60 60 0 33-27 60-60 60z m0-132c-40 0-72 32-72 72 0 39 32 72 72 72 40 0 72-33 72-72 0-40-32-72-72-72z m0 181c-40 0-72 33-72 72l12 0c0-33 27-60 60-60 33 0 60 27 60 60 0 34-27 61-60 61l0 11c40 0 72-32 72-72 0-39-32-72-72-72z m0 182l0 12c33 0 60 27 60 60 0 33-27 60-60 60l0 12c40 0 72-32 72-72 0-40-32-72-72-72z m303-352l121 0 0 121-121 0z m127-11l-132 0c-4 0-6 2-6 6l0 132c0 3 2 6 6 6l132 0c3 0 6-3 6-6l0-132c0-4-3-6-6-6z m0 181l-133 0 0 12 127 0 0 121-127 0 0 11 133 0c3 0 6-2 6-5l0-133c0-3-3-6-6-6z m6 188l-12 0 0 126-126 0 0 12 132 0c3 0 6-3 6-6z m-311-358l113 0-56 113z m123-11l-132 0c-2 0-4 1-5 2-1 2-2 4-1 6l66 132c2 4 9 4 11 0l66-132c1-2 1-4 0-6-1-1-3-2-5-2z m0 181l-132 0 0 12 122 0-62 124 11 5 66-132c1-2 1-4 0-6-1-1-3-3-5-3z"/>
<glyph glyph-name="fill-16-1" unicode="&#46;" d="M315 371l-67 132 11 6 66-132z m-243-234c-33 0-60-27-60-60 0-34 27-60 60-60 33 0 60 26 60 60 0 33-27 60-60 60z m0-132c-40 0-72 32-72 72 0 39 32 72 72 72 40 0 72-33 72-72 0-40-32-72-72-72z m0 181c-40 0-72 33-72 72l12 0c0-33 27-60 60-60 33 0 60 27 60 60 0 34-27 61-60 61l0 11c40 0 72-32 72-72 0-39-32-72-72-72z m0 182l0 12c33 0 60 27 60 60 0 33-27 60-60 60l0 12c40 0 72-32 72-72 0-40-32-72-72-72z m303-352l121 0 0 121-121 0z m127-11l-132 0c-4 0-6 2-6 6l0 132c0 3 2 6 6 6l132 0c3 0 6-3 6-6l0-132c0-4-3-6-6-6z m0 181l-133 0 0 12 127 0 0 121-127 0 0 11 133 0c3 0 6-2 6-5l0-133c0-3-3-6-6-6z m6 188l-12 0 0 126-126 0 0 12 132 0c3 0 6-3 6-6z m-311-358l113 0-56 113z m123-11l-132 0c-2 0-4 1-5 2-1 2-2 4-1 6l66 132c2 4 9 4 11 0l66-132c1-2 1-4 0-6-1-1-3-2-5-2z m0 181l-132 0 0 12 122 0-62 124 11 5 66-132c1-2 1-4 0-6-1-1-3-3-5-3z"/>
<glyph glyph-name="fill-19" unicode="&#47;" d="M496 324c0-4-4-8-9-8-4 0-8 4-8 8 0 5 4 9 8 9 5 0 9-4 9-9z m-240-66l43-42c24-24 63-24 86 0 12 11 18 26 18 42 0 16-6 31-18 43-23 23-62 23-86 0z m-102 60c-16 0-32-5-43-17-12-12-18-27-18-43 0-16 6-31 18-42 23-24 62-24 86 0l43 42-43 43c-12 12-28 17-43 17z m0-132c-19 0-38 7-52 21-14 14-21 32-21 51 0 20 7 38 21 51 29 28 75 28 103 0l43-42 43 42c28 28 75 28 103 0 14-13 21-31 21-51 0-19-7-37-21-51-28-28-75-28-103 0l-43 43-43-43c-14-14-33-21-51-21z m-154 314l0 12 495 0 0-12z m0-495l0 12 495 0 0-12z m0 429l0 12 248 0 0-12z m248-66l0 12 248 0 0-12z m0-297l0 12 248 0 0-12z m-248 66l0 12 198 0 0-12z m496 303c0-5-4-8-9-8-4 0-8 3-8 8 0 5 4 8 8 8 5 0 9-3 9-8z m-33 0c0-5-4-8-9-8-4 0-8 3-8 8 0 5 4 8 8 8 5 0 9-3 9-8z m-413-248c0-4-4-8-8-8-5 0-9 4-9 8 0 5 4 9 9 9 4 0 8-4 8-9z m198-49c0-5-4-9-8-9-5 0-9 4-9 9 0 4 4 8 9 8 4 0 8-4 8-8z m-231-66c0-5-4-9-8-9-5 0-9 4-9 9 0 4 4 8 9 8 4 0 8-4 8-8z m479 66c0-5-4-9-9-9-4 0-8 4-8 9 0 4 4 8 8 8 5 0 9-4 9-8z m-479 49c0-4-4-8-8-8-5 0-9 4-9 8 0 5 4 9 9 9 4 0 8-4 8-9z m0 182c0-5-4-8-8-8-5 0-9 3-9 8 0 4 4 8 9 8 4 0 8-4 8-8z"/>
<glyph glyph-name="fill-19-1" unicode="&#58;" d="M496 324c0-4-4-8-9-8-4 0-8 4-8 8 0 5 4 9 8 9 5 0 9-4 9-9z m-240-66l43-42c24-24 63-24 86 0 12 11 18 26 18 42 0 16-6 31-18 43-23 23-62 23-86 0z m-102 60c-16 0-32-5-43-17-12-12-18-27-18-43 0-16 6-31 18-42 23-24 62-24 86 0l43 42-43 43c-12 12-28 17-43 17z m0-132c-19 0-38 7-52 21-14 14-21 32-21 51 0 20 7 38 21 51 29 28 75 28 103 0l43-42 43 42c28 28 75 28 103 0 14-13 21-31 21-51 0-19-7-37-21-51-28-28-75-28-103 0l-43 43-43-43c-14-14-33-21-51-21z m-154 314l0 12 495 0 0-12z m0-495l0 12 495 0 0-12z m0 429l0 12 248 0 0-12z m248-66l0 12 248 0 0-12z m0-297l0 12 248 0 0-12z m-248 66l0 12 198 0 0-12z m496 303c0-5-4-8-9-8-4 0-8 3-8 8 0 5 4 8 8 8 5 0 9-3 9-8z m-33 0c0-5-4-8-9-8-4 0-8 3-8 8 0 5 4 8 8 8 5 0 9-3 9-8z m-413-248c0-4-4-8-8-8-5 0-9 4-9 8 0 5 4 9 9 9 4 0 8-4 8-9z m198-49c0-5-4-9-8-9-5 0-9 4-9 9 0 4 4 8 9 8 4 0 8-4 8-8z m-231-66c0-5-4-9-8-9-5 0-9 4-9 9 0 4 4 8 9 8 4 0 8-4 8-8z m479 66c0-5-4-9-9-9-4 0-8 4-8 9 0 4 4 8 8 8 5 0 9-4 9-8z m-479 49c0-4-4-8-8-8-5 0-9 4-9 8 0 5 4 9 9 9 4 0 8-4 8-9z m0 182c0-5-4-8-8-8-5 0-9 3-9 8 0 4 4 8 9 8 4 0 8-4 8-8z"/>
<glyph glyph-name="finance-chat" unicode="&#59;" d="M86 132c-39 0-70 32-70 70l0 224c0 39 31 70 70 70l352 0c38 0 70-31 70-70l0-224c0-38-32-70-70-70l-109 0-62-124-10 5 64 128c1 2 3 3 5 3l112 0c32 0 58 26 58 58l0 224c0 32-26 58-58 58l-352 0c-32 0-58-26-58-58l0-224c0-32 26-58 58-58l176 0 0-12z m182 86l-12 0 0 26-58 0 0 12 96 0c14 0 26 12 26 26 0 15-12 26-26 26l-64 0c-21 0-38 17-38 38 0 21 17 38 38 38l26 0 0 26 12 0 0-26 58 0 0-12-96 0c-15 0-26-11-26-26 0-14 11-26 26-26l64 0c21 0 38-17 38-38 0-21-17-38-38-38l-26 0z"/>
<glyph glyph-name="finance-graph" unicode="&#60;" d="M281 269c23 15 49 23 77 23 76 0 138-62 138-138 0-76-62-138-138-138-76 0-138 62-138 138 0 6 0 12 1 18 2 16 7 31 14 45 11 21 26 39 46 52z m3 215l68 0 0-180c-4 0-8-1-13-1-1-1-3-1-4-1-7-1-13-2-20-4-1-1-3-1-5-2-4-2-9-3-14-5-2-1-4-2-6-4-2-1-4-2-6-3z m-128-128l68 0 0-135c-2-4-5-9-6-14-1-1-1-2-1-3-2-4-3-9-4-14-1-1-1-3-2-5 0-4-1-7-2-11 0-2 0-5 0-7 0-2-1-5-1-7l-52 0z m74 12l-80 0c-3 0-6-3-6-6l0-208c0-3 3-6 6-6l58 0c3-79 69-144 150-144 82 0 150 68 150 150 0 81-65 147-144 150l0 186c0 3-3 6-6 6l-80 0c-3 0-6-3-6-6l0-213c-14-10-27-22-36-36l0 121c0 3-3 6-6 6z m104-220l48 0c10 0 18-8 18-18 0-10-8-18-18-18l-72 0 0-12 42 0 0-26 12 0 0 26 18 0c16 0 30 14 30 30 0 17-14 30-30 30l-48 0c-10 0-18 8-18 18 0 10 8 18 18 18l72 0 0 12-42 0 0 26-12 0 0-26-18 0c-17 0-30-13-30-30 0-16 13-30 30-30m-306 12l68 0 0 100-68 0z m-6-12l80 0c3 0 6 3 6 6l0 112c0 3-3 6-6 6l-80 0c-3 0-6-3-6-6l0-112c0-3 3-6 6-6z"/>
<glyph glyph-name="finance-person" unicode="&#61;" d="M390 228c58 0 106-47 106-106 0-58-48-106-106-106-59 0-106 48-106 106 0 17 4 34 11 49 9 16 21 30 36 40 17 11 38 17 59 17z m-362-139c0 72 45 136 114 160 2 1 3 3 3 5 1 2-1 4-3 5-40 21-64 62-64 106 0 66 53 119 119 119 66 0 120-53 120-119 0-44-25-85-65-105-2-2-3-4-3-6 0-2 1-4 4-5 22-8 43-21 60-37-11-10-21-22-28-36-8-16-13-35-13-54 0-65 53-118 118-118 65 0 118 53 118 118 0 65-53 118-118 118-24 0-46-7-66-20 0 0-1-1-1-1-16 15-35 28-55 36 37 24 60 65 60 110 0 72-59 131-131 131-72 0-131-59-131-131 0-45 23-86 60-110-66-28-110-93-110-166l0-95 12 0z m346 27l32 0c5 0 10-4 10-10 0-5-5-10-10-10l-48 0 0-12 26 0 0-18 12 0 0 18 10 0c12 0 22 10 22 22 0 12-10 22-22 22l-32 0c-6 0-10 5-10 10 0 6 4 10 10 10l48 0 0 12-26 0 0 18-12 0 0-18-10 0c-12 0-22-10-22-22 0-12 10-22 22-22"/>
<glyph glyph-name="fingerprint" unicode="&#62;" d="M445 142c-1 0-2 0-3 1-3 2-3 5-1 8 14 20 23 54 23 89 0 19-1 41-13 65-1 3 0 6 3 7 3 2 6 0 8-2 12-27 14-50 14-70 0-38-10-74-26-96-1-1-3-2-5-2z m-11 269c-1 0-3 1-4 2-44 45-105 71-166 71l-1 0c-65 0-124-24-169-70-2-2-6-2-8 0-2 2-2 6 0 8 47 48 108 74 177 74l1 0c64 0 128-27 174-75 2-2 2-6 0-8-1-1-2-2-4-2z m-369-97c-1 0-2 1-3 1-2 2-3 6-1 8 34 53 93 123 200 123 75 0 144-37 185-100 2-3 1-6-2-8-2-2-6-1-8 2-39 59-104 94-175 94-102 0-158-67-191-117-1-2-3-3-5-3z m374-220c-1 0-2 0-2 0-36 16-43 38-43 71 0 21 2 31 5 42 2 12 5 24 5 51 0 62-55 128-143 128-66 0-99-33-126-67-3-4-6-9-10-13-17-23-40-54-69-66-3-1-6 1-8 3-1 3 1 7 4 8 26 11 48 40 64 62 4 4 7 9 10 13 29 36 64 71 135 71 96 0 155-72 155-139 0-28-3-42-6-54-3-10-5-20-5-39 0-34 9-48 36-60 3-2 4-5 3-8-1-2-3-3-5-3z m-30-39c-1 0-2 0-3 0-52 21-63 63-63 95 0 14 3 27 5 41 4 16 7 33 7 55 0 38-32 91-94 91-52 0-83-40-97-63-13-23-51-79-108-100-3-1-7 1-8 4-1 3 1 6 4 7 37 14 76 49 102 95 16 25 50 69 107 69 63 0 106-54 106-103 0-23-4-41-7-57-3-14-6-26-6-39 0-28 10-66 57-84 3-1 4-5 3-8-1-2-3-3-5-3z m-267-19c-2 0-4 1-5 3-2 3-1 6 2 8 45 30 82 59 118 94 20 18 52 56 52 96 0 25-17 51-48 51-27 0-48-31-68-61-11-16-20-31-32-41-30-30-61-48-96-66-3-1-6 0-8 3-1 2 0 6 3 7 34 18 64 35 93 64 11 10 20 24 30 39 22 33 45 67 78 67 37 0 59-32 59-63 0-45-34-85-55-104-37-36-74-65-120-96-1 0-2-1-3-1z m-43 32c-2 0-4 1-5 3-2 3-1 6 2 8 52 32 123 85 161 157 1 2 4 3 7 2 3-2 4-5 3-8-39-73-112-128-165-161-1-1-2-1-3-1z m184-64c-3 0-6 3-6 6-2 19-14 39-37 39-21 0-34-12-47-31-1-2-5-3-8-1-2 2-3 5-1 8 13 19 28 36 56 36 30 0 46-26 48-50 1-3-2-6-5-7 0 0 0 0 0 0z m62 16c-1 0-2 0-3 0-30 19-49 50-49 79 0 11 2 23 5 33 2 3 5 4 8 3 3-1 4-5 3-8-4-9-5-20-5-28 0-26 17-52 44-69 3-1 4-5 2-8-1-1-3-2-5-2z"/>
<glyph glyph-name="foggy" unicode="&#63;" d="M96 196l0 0c-46 1-80 33-80 76 0 44 36 80 80 80 11 0 22-2 32-7 10 66 68 119 133 119 52 0 101-33 123-84 9 3 21 4 29 4 52 0 95-43 95-95 0-3-3-6-6-6-3 0-6 3-6 6 0 46-37 83-83 83-11 0-23-1-31-4-3-1-6 0-7 3-19 49-65 81-114 81-62 0-116-52-123-116 0-2-1-4-3-5-1-1-3-1-5 0-11 6-22 9-34 9-38 0-68-30-68-68 0-37 28-64 68-64 3 0 6-3 6-6 0-3-3-6-6-6z m294 0l-240 0c-3 0-6 3-6 6 0 3 3 6 6 6l240 0c3 0 6-3 6-6 0-3-3-6-6-6z m64 64l-224 0c-3 0-6 3-6 6 0 3 3 6 6 6l224 0c3 0 6-3 6-6 0-3-3-6-6-6z m0-128l-224 0c-3 0-6 3-6 6 0 3 3 6 6 6l224 0c3 0 6-3 6-6 0-3-3-6-6-6z m-64-64l-192 0c-3 0-6 3-6 6 0 3 3 6 6 6l192 0c3 0 6-3 6-6 0-3-3-6-6-6z m-256 64l-112 0c-3 0-6 3-6 6 0 3 3 6 6 6l112 0c3 0 6-3 6-6 0-3-3-6-6-6z"/>
<glyph glyph-name="free-trial" unicode="&#64;" d="M138 67l-73 0-37 63 37 64 67 0-23-40 10-6 23 40 33-58z m10 133l39-67c1-2 1-4 0-6l-40-69c-1-2-3-3-5-3l-77 0-22-38-10 5 22 39-38 66c-1 2-1 4 0 6l40 69c1 2 3 3 5 3l76 0 27 46 10-6z m322 72c14 0 26 12 26 26l0 144c0 23-19 42-43 42l-158 0c-24 0-43-19-43-42l0-240c0-14 11-26 26-26 14 0 26 12 26 26l0 192c0 3 3 6 6 6 3 0 6-3 6-6l0-96c0-14 11-26 26-26 14 0 26 12 26 26l0 96c0 3 3 6 6 6 3 0 6-3 6-6l0-96c0-14 11-26 26-26 14 0 26 12 26 26l0 96c0 3 3 6 6 6 3 0 6-3 6-6l0-96c0-14 11-26 26-26z m-231 46l1 3 0 112-50-87c-4-6-5-14-3-21 2-7 7-13 13-17 14-8 31-3 39 10z m214 178c30 0 55-24 55-54l0-144c0-21-17-38-38-38-14 0-26 8-32 18-7-10-19-18-32-18-14 0-26 8-32 18-7-10-19-18-32-18-10 0-20 5-26 11l0-69c0-21-17-38-38-38-21 0-38 17-38 38 0 0 0 0 0 0l0 101c-7-7-16-10-26-10-7 0-13 1-20 5-9 5-16 14-18 24-3 10-2 21 4 30l67 116c0 0 0 1 1 1 9 16 27 27 47 27z"/>
<glyph glyph-name="game" unicode="&#91;" d="M472 25c-9-6-20-9-31-9l-6 0c-15 0-30 6-41 17l-48 45c-1 1-3 2-4 2l-160 0c-2 0-3-1-4-2l-49-45c-11-11-25-17-41-17l-5 0c-11 0-22 3-31 9-21 13-30 41-21 66l50 152c4 10 14 17 25 17l311 0c12 0 22-7 25-17l51-152c8-25-1-53-21-66z m-204 401c0 32 26 58 58 58 32 0 58-26 58-58 0-32-26-58-58-58l-58 0z m185-180c-5 16-19 26-36 26l-149 0 0 84 58 0c38 0 70 32 70 70 0 39-32 70-70 70-39 0-70-31-70-70l0-58-122 0 0-12 122 0 0-84-150 0c-16 0-30-10-36-26l-50-152c-10-30 0-62 26-79 11-7 24-11 37-11l5 0c19 0 36 8 49 21l47 44 156 0 46-44c13-13 31-21 49-21l6 0c13 0 26 4 37 11 25 17 36 49 26 79z m-255-78l-42 0 0 42c0 3-3 6-6 6-3 0-6-3-6-6l0-42-42 0c-3 0-6-3-6-6 0-3 3-6 6-6l42 0 0-42c0-3 3-6 6-6 3 0 6 3 6 6l0 42 42 0c3 0 6 3 6 6 0 3-3 6-6 6m176 50c-9 0-16-7-16-16 0-9 7-16 16-16 9 0 16 7 16 16 0 9-7 16-16 16m0-80c-9 0-16-7-16-16 0-9 7-16 16-16 9 0 16 7 16 16 0 9-7 16-16 16m-40 40c-9 0-16-7-16-16 0-9 7-16 16-16 9 0 16 7 16 16 0 9-7 16-16 16m80 0c-9 0-16-7-16-16 0-9 7-16 16-16 9 0 16 7 16 16 0 9-7 16-16 16"/>
<glyph glyph-name="gameboy" unicode="&#93;" d="M92 192l84 0 0 36-84 0z m-6-12c-3 0-6 3-6 6l0 48c0 3 3 6 6 6l96 0c3 0 6-3 6-6l0-48c0-3-3-6-6-6z m296 12c10 0 18 8 18 18 0 10-8 18-18 18-10 0-18-8-18-18 0-10 8-18 18-18z m0 48c16 0 30-13 30-30 0-16-14-30-30-30-17 0-30 14-30 30 0 17 13 30 30 30z m-136-134c4 0 8-3 8-8 0-4-4-8-8-8-5 0-8 4-8 8 0 5 3 8 8 8z m0 32c4 0 8-3 8-8 0-4-4-8-8-8-5 0-8 4-8 8 0 5 3 8 8 8z m0-64c4 0 8-3 8-8 0-4-4-8-8-8-5 0-8 4-8 8 0 5 3 8 8 8z m32 32c4 0 8-3 8-8 0-4-4-8-8-8-5 0-8 4-8 8 0 5 3 8 8 8z m-64 0c4 0 8-3 8-8 0-4-4-8-8-8-5 0-8 4-8 8 0 5 3 8 8 8z m-170-90l404 0 0 468-404 0z m-6 480l416 0c3 0 6-3 6-6l0-480c0-3-3-6-6-6l-416 0c-3 0-6 3-6 6l0 480c0 3 3 6 6 6z m54-208l308 0 0 148-308 0z m-6-12c-3 0-6 3-6 6l0 160c0 3 3 6 6 6l320 0c3 0 6-3 6-6l0-160c0-3-3-6-6-6z"/>
<glyph glyph-name="gbs" unicode="&#94;" d="M351 69c19 16 36 44 46 79l69 0c-27-39-67-69-115-79z m-181 59c17 4 32 11 45 20l7 0c11-36 28-63 47-80-38 9-73 30-99 60z m-119 53l24 48 27 0c2 0 4 1 5 3l27 82 39-38c2-3 6-3 8 0l48 48c17-20 27-46 27-74 0-63-51-114-114-114-37 0-70 18-91 45z m91 183c31 0 59-12 79-32l-44-44-41 41c-1 1-4 2-5 1-2 0-4-2-5-3l-28-87-26 0c-3 0-5-1-6-3l-22-45c-10 17-16 37-16 58 0 63 51 114 114 114z m127 68c-19-16-36-44-47-80l-7 0c-13 10-28 17-45 21 26 30 61 51 99 59z m197-80l-69 0c-10 35-27 63-46 80 48-11 88-40 115-80z m-55-108l85 0c-1-30-9-59-23-84l-72 0c6 25 10 54 10 84z m-95-84l0 84 84 0c-1-30-5-59-11-84z m0-12l69 0c-15-47-40-80-69-83z m-12 0l0-84c-28 4-54 36-70 84z m0 204l-70 0c16 48 42 80 70 84z m12 0l0 84c29-4 54-36 69-84z m84-96l-84 0 0 84 73 0c6-25 10-53 11-84z m96 0l-85 0c0 31-4 59-10 84l72 0c14-25 22-53 23-84z m-262 80c0 0 0 0 0 0 0 0-1 0-1 0-1 1-1 2-2 3 0 1 0 1 0 1l73 0 0-84-37 0c-1 31-14 58-33 80z m-3-175c21 22 35 51 36 83l37 0 0-84-73 0c0 0 0 1 0 1z m250-8c17 28 27 62 27 97 0 36-10 69-27 98 0 1 0 2-1 2-34 59-98 98-170 98-60 0-116-27-153-73-5 1-10 1-15 1-70 0-126-56-126-126 0-69 56-126 126-126 5 0 10 1 15 1 37-46 93-73 153-73 72 0 136 40 170 98 1 1 1 2 1 3z"/>
<glyph glyph-name="germs-01" unicode="&#95;" d="M262 16c-129 0-234 105-234 234 0 129 105 234 234 234 129 0 234-105 234-234 0-129-105-234-234-234m0 480c-136 0-246-110-246-246 0-135 110-246 246-246 135 0 246 111 246 246 0 136-111 246-246 246m136-133c5 0 10-5 10-11 0-5-5-10-10-10-6 0-10 5-10 10 0 6 4 11 10 11m0-32c12 0 22 9 22 21 0 12-10 22-22 22-12 0-22-10-22-22 0-12 10-21 22-21m-168-123c-15 0-27 12-27 26 0 15 12 26 27 26 14 0 26-11 26-26 0-14-12-26-26-26m0 64c-21 0-38-17-38-38 0-21 17-38 38-38 20 0 37 17 37 38 0 21-17 38-37 38m7 183c1 3 3 4 6 5 1 0 2 0 3 0 2 0 3 0 5-1l41-24c5-3 7-9 4-14-1-2-3-4-6-5-3 0-5 0-8 1l-41 24c-5 3-7 9-4 14m-2-24l41-24c4-2 7-3 11-3 2 0 4 1 6 1 6 2 10 5 13 10 6 11 3 24-8 30l-41 24c-5 3-11 4-17 2-6-1-10-5-13-10-6-10-3-24 8-30m-176-130c2 4 6 6 9 6 2 0 4-1 5-2l42-24c2-1 4-3 5-6 0-3 0-5-1-8-3-5-9-6-14-4l-42 24c-5 3-6 10-4 14m51-50c7 0 15 3 19 10 3 5 3 11 2 17-2 6-5 10-10 13l-42 24 0 0c-10 6-24 3-30-8-6-10-2-24 8-30l42-24c3-1 7-2 11-2m337-86c-2-2-4-4-7-5-2 0-5 0-7 1l-42 24c-5 3-6 9-4 14 2 4 6 5 9 5 2 0 4 0 5-1l42-24c2-1 4-3 5-6 0-3 0-6-1-8m2 24l-42 24c-10 6-24 2-30-8-6-10-2-24 8-30l42-24c3-2 7-3 11-3 2 0 4 1 5 1 6 2 11 5 14 10 3 5 3 11 2 17-2 5-5 10-10 13m-289-74c-3-5-9-6-14-4l-41 24c-3 2-4 4-5 7-1 2 0 5 1 7 1 3 3 5 6 5 1 0 2 1 3 1 2 0 3-1 5-2l41-24c3-1 5-3 5-6 1-3 1-5-1-8m2 24l-41 24c-5 3-11 4-17 2-5-1-10-5-13-10-3-5-4-11-2-16 1-6 5-11 10-13l41-24c4-2 8-3 11-3 8 0 15 4 19 10 3 5 4 11 2 17-1 6-5 10-10 13m-13 218l24 42c1 2 3 4 6 5 1 0 2 0 3 0 2 0 3 0 5-1 5-3 6-9 4-14l-24-42c-3-5-9-6-14-4-3 2-4 4-5 7-1 2 0 5 1 7m-2-24c3-1 7-2 11-2 7 0 15 3 19 10l24 42c6 10 2 24-8 30-5 3-11 3-17 2-5-2-10-5-13-10l-24-42c-3-5-4-11-2-16 1-6 5-11 10-14m308-34l-24-41c-3-5-9-7-14-4-3 1-4 3-5 6-1 3 0 6 1 8l24 41c1 3 3 5 6 5 1 0 2 1 3 1 2 0 3-1 5-2 2-1 4-3 5-6 0-3 0-5-1-8m12 11c-2 6-5 10-10 13-5 3-11 4-17 2-5-1-10-5-13-10l-24-41c-3-5-4-11-2-17 1-5 5-10 10-13 3-2 7-3 11-3 7 0 15 4 19 11l24 41c3 6 3 11 2 17m-124-209l-24-41c-2-3-4-4-7-5-2-1-5-1-7 1-5 3-7 9-4 14l24 41c1 3 3 4 6 5 1 0 2 0 3 0 2 0 3 0 5-1 5-3 6-9 4-14m2 24c-5 3-11 4-17 2-6-1-10-5-13-10l-24-41c-6-11-3-24 8-30 3-2 7-3 11-3 2 0 4 0 5 1 6 1 11 5 14 10l24 41c2 5 3 11 2 17-2 5-5 10-10 13m-6 151c0-1 0-1-1-1 0 0 0 0 0 0-19-14-42-32-55-63 0 0 0 0 0 0-9-22-30-36-53-36-33 0-59 26-59 58 0 32 26 58 59 58 33 0 55 13 73 24 3 1 6 3 9 5 0 0 0 0 0 0 0 0 0 0 0 0 4 2 9 3 14 3 14 0 26-11 26-26 0-9-5-18-13-22m-13 60c-7 0-13-2-19-5 0 0 0 0 0 0 0 0 0 0 0 0 0 0 0 0 0 0-3-2-6-4-9-5-19-11-38-22-68-22-39 0-70-31-70-70 0-38 31-70 70-70 28 0 53 17 64 43 0 0 0 0 0 0 12 29 33 45 51 59 0 0 0 0 0 0 12 7 19 19 19 32 0 21-17 38-38 38"/>
<glyph glyph-name="germs-02" unicode="&#96;" d="M262 16c-129 0-234 105-234 234 0 129 105 234 234 234 129 0 234-105 234-234 0-129-105-234-234-234m0 480c-136 0-246-110-246-246 0-135 110-246 246-246 135 0 246 111 246 246 0 136-111 246-246 246m0-254c4 0 8 4 8 8 0 5-4 8-8 8-5 0-8-3-8-8 0-4 3-8 8-8m72 176c-9 0-16-7-16-16 0-9 7-16 16-16 9 0 16 7 16 16 0 9-7 16-16 16m-192-240c-9 0-16-7-16-16 0-9 7-16 16-16 9 0 16 7 16 16 0 9-7 16-16 16m64 216c-5 0-8-3-8-8 0-4 3-8 8-8 4 0 8 4 8 8 0 5-4 8-8 8m168-216c-5 0-8-3-8-8 0-4 3-8 8-8 4 0 8 4 8 8 0 5-4 8-8 8m-168 174c-19 0-34 15-34 34 0 19 15 34 34 34 19 0 34-15 34-34 0-19-15-34-34-34m46 34c0 25-21 46-46 46-25 0-46-21-46-46 0-25 21-46 46-46 25 0 46 21 46 46m180-80c0-19-15-34-34-34-19 0-34 15-34 34 0 19 15 34 34 34 19 0 34-15 34-34m-80 0c0-25 21-46 46-46 25 0 46 21 46 46 0 25-21 46-46 46-25 0-46-21-46-46m-82-226c-19 0-34 15-34 34 0 19 15 34 34 34 19 0 34-15 34-34 0-19-15-34-34-34m0 80c-25 0-46-21-46-46 0-25 21-46 46-46 25 0 46 21 46 46 0 25-21 46-46 46m-168 48c-15 0-26 12-26 26 0 15 11 26 26 26 14 0 26-11 26-26 0-14-12-26-26-26m38 26c0 21-17 38-38 38-21 0-38-17-38-38 0-21 17-38 38-38 21 0 38 17 38 38"/>
<glyph glyph-name="germs-03" unicode="&#123;" d="M129 310c24 14 52 18 79 11l0 0c0 0 0 0 0 0 6-1 12-2 18-2 21 0 44 8 55 15 6 3 14 9 23 16 12 10 27 21 43 31 13 7 29 10 44 6 15-5 27-14 35-28 8-13 10-29 6-44-4-15-14-27-27-35-16-9-34-16-48-22-10-4-19-8-25-11-15-9-41-32-48-57 0 0 0 0 0 0-7-27-25-50-49-64-25-14-53-18-81-10-27 7-50 25-64 49-30 51-12 116 39 145z m-91-86c-3 0-6-3-6-6 0-3 3-6 6-6l26 0c1-16 5-32 13-48l-23-13c-3-1-4-5-2-8 1-2 3-3 5-3 1 0 2 1 3 1l23 14c9-15 21-27 35-36l-13-23c-2-2-1-6 2-7 1-1 2-1 3-1 2 0 4 1 5 3l13 23c7-4 15-7 23-10 8-2 17-3 25-3l0-27c0-3 3-6 6-6 3 0 6 3 6 6l0 27c16 1 32 5 47 13l14-23c1-2 3-3 5-3 1 0 2 0 3 1 2 1 3 5 2 7l-14 23c15 10 27 21 36 35l23-13c0 0 1-1 2-1 2 0 4 1 5 3 2 3 1 7-2 8l-23 13c4 7 7 15 9 23 0 0 0 0 0 0 0 0 0 0 0 0 2 5 4 10 7 15l19-18c1-1 2-2 4-2 1 0 3 1 4 2 2 2 2 6-1 8l-19 19c7 9 16 17 23 23l13-23c2-2 3-3 5-3 1 0 2 1 3 1 3 2 4 5 2 8l-13 22c6 3 12 5 19 8 4 2 7 3 10 4l8-25c1-2 3-4 5-4 1 0 2 1 2 1 3 1 5 4 4 7l-8 26c8 3 16 7 24 11l13-23c1-2 3-3 5-3 1 0 2 1 3 1 2 2 3 5 2 8l-14 23c7 5 13 11 18 18l23-14c1 0 2-1 3-1 2 0 4 1 5 3 1 3 1 7-2 8l-23 14c3 7 5 15 6 23l27 0c3 0 6 3 6 6 0 3-3 6-6 6l-27 0c-1 8-3 16-6 24l23 13c3 2 3 5 2 8-2 3-5 4-8 2l-23-13c-5 7-11 13-18 17l14 24c1 2 0 6-2 7-3 2-7 1-8-2l-14-23c-3 2-7 4-11 5-4 1-8 1-12 2l0 26c0 3-3 6-6 6-3 0-6-3-6-6l0-26c-8-1-16-3-24-7l-13 23c-2 3-5 4-8 2-3-1-4-5-2-7l13-23c-8-5-15-10-22-15l-18 20c-2 2-6 2-8 0-3-2-3-6-1-8l18-19c-3-2-6-5-8-7-6-5-12-9-17-12l-13 22c-1 3-5 4-7 2-3-1-4-5-3-7l13-23c-8-4-19-8-31-9l-6 26c-1 3-4 5-7 5-3-1-5-4-5-7l6-25c-5-1-11 0-16 1 0 0 0 0 0 0 0 0 0 0 0 0-8 2-16 3-23 4l0 26c0 3-3 6-6 6-3 0-6-3-6-6l0-26c-17-1-33-5-48-13l-13 23c-2 3-5 4-8 2-3-2-4-5-2-8l13-23c-14-9-26-21-35-35l-23 13c-3 2-6 1-8-2-2-3-1-6 2-8l23-13c-8-15-12-31-13-48z m88 9c4 15 13 28 27 36 9 5 19 7 29 7 5 0 10 0 15-2 15-4 27-13 35-27 16-27 7-63-21-79-28-16-64-7-80 21-7 14-10 29-5 44m56-85c12 0 24 4 35 10 16 9 27 24 32 42 5 18 2 37-7 53-9 16-24 28-42 33-18 4-37 2-53-7-16-10-28-25-33-43-4-18-2-37 7-53 13-22 37-35 61-35m181 205c4 2 8 3 13 3 9 0 18-4 22-13 4-6 5-13 3-20-2-6-6-12-12-15l0 0c-6-4-13-5-20-3-7 2-12 6-16 12-7 13-3 29 10 36m3-59c3-1 7-2 10-2 6 0 13 2 19 6 8 5 15 13 17 22 3 10 1 20-4 29-10 18-33 24-51 14-18-10-24-34-14-52 5-8 13-15 23-17"/>
<glyph glyph-name="global-finance" unicode="&#124;" d="M326 25c28 19 53 51 70 91l58 0c-31-43-76-76-128-91z m-256 91l58 0c17-40 41-72 70-91-53 15-98 48-128 91z m128 359c-29-19-53-51-70-91l-58 0c30 44 75 76 128 91z m256-91l-58 0c-17 40-42 72-70 91 52-15 97-47 128-91z m-32-135l0-5 74 0c-1-42-14-82-35-116l-61 0c14 36 22 77 22 121z m74 7l-74 0 0-5c0 44-8 86-22 121l61 0c21-34 34-73 35-116z m-228-128l0 244 120 0c14-35 22-77 22-122 0-45-8-86-22-122z m0-12l116 0c-26-58-69-97-116-100z m-155 128l143 0 0-228c-78 5-141 105-143 228z m-11 12l-74 0c1 43 13 82 34 116l61 0c-13-34-20-74-21-116z m154 0l-143 0c2 123 65 223 143 228z m12 228c48-3 90-42 116-100l-116 0z m-240-240l74 0c1-42 8-82 21-116l-61 0c-21 34-33 74-34 116z m480 6c0 136-111 246-246 246-136 0-246-110-246-246 0-135 110-246 246-246 135 0 246 111 246 246z m-160-5l28 34-9 7-26-30-24 30-9-7 28-35 0-10-24 0 0-11 24 0 0-21 12 0 0 21 23 0 0 11-23 0z m-117-116l-48 0c6 5 10 12 10 21 0 3-1 5-1 7l32 0 0 12-41 0c-1 2-2 3-2 6 0 17 13 22 23 22 9 0 18-6 23-11l8 8c-3 3-16 15-31 15-20 0-34-14-34-34 0-2 0-4 1-6l-13 0 0-12 20 0c2-2 4-4 4-7 0-9-7-14-20-22-3-1-4-4-3-6 1-3 3-5 5-5l67 0z m-71 233c0-12 10-22 22-22l32 0c5 0 10-4 10-10 0-5-5-10-10-10l-48 0 0-12 26 0 0-18 12 0 0 18 10 0c12 0 22 10 22 22 0 12-10 22-22 22l-32 0c-6 0-10 5-10 10 0 6 4 10 10 10l48 0 0 12-26 0 0 18-12 0 0-18-10 0c-12 0-22-10-22-22"/>
<glyph glyph-name="globe-01" unicode="&#125;" d="M224 26l0 53c-47 1-92 18-128 47l7 9c36-29 80-45 127-45 111 0 202 91 202 203 0 88-56 165-140 192l4 11c88-29 148-110 148-203 0-116-93-211-208-214l0-53 90 0 0-11-192 0 0 11z m6 421c-85 0-154-69-154-154 0-86 69-155 154-155 85 0 154 69 154 155 0 85-69 154-154 154z m0-320c-92 0-166 74-166 166 0 91 74 165 166 165 91 0 166-74 166-165 0-92-75-166-166-166z"/>
<glyph glyph-name="globe-02" unicode="&#126;" d="M126 86c-56 35-94 98-94 169 0 109 89 197 198 197 34 0 66-8 94-23l21 36c0 0 0 0 0 0 0 1 0 1 0 1l16 27c1 3 5 4 8 2 2-1 3-5 2-8l-13-22c72-45 118-125 118-210 0-136-111-246-246-246-41 0-82 10-118 30l-13-23c-1-2-3-3-5-3-1 0-2 1-3 1-3 2-4 5-2 8z m10-5l-18-32c34-19 73-29 112-29 129 0 234 106 234 235 0 81-43 157-112 200l-18-32c56-35 94-97 94-168 0-109-89-198-198-198-34 0-66 9-94 24z m170 78c0-7-5-13-12-13-7 0-13 6-13 13 0 7 6 12 13 12 7 0 12-5 12-12z m-76 282c-103 0-186-84-186-186 0-103 83-187 186-187 102 0 186 84 186 187 0 102-84 186-186 186z m12-170c0-7-5-13-12-13-7 0-13 6-13 13 0 7 6 12 13 12 7 0 12-5 12-12z m-80 112c0-7-5-13-12-13-7 0-13 6-13 13 0 7 6 12 13 12 7 0 12-5 12-12z m-16-80c0-7-5-13-12-13-7 0-13 6-13 13 0 7 6 12 13 12 7 0 12-5 12-12z m224 0c0-7-5-13-12-13-7 0-13 6-13 13 0 7 6 12 13 12 7 0 12-5 12-12z m0-49c0-6-5-12-12-12-7 0-13 6-13 12 0 7 6 13 13 13 7 0 12-6 12-13z"/>
<glyph glyph-name="government" unicode="&#92;" d="M256 388c48 0 87-37 90-84l-180 0c3 47 42 84 90 84z m6 60l68 0 0 36-68 0z m96-214l-12 0 0 58-180 0 0-58-12 0 0 64c0 54 43 99 96 102l0 90c0 3 3 6 6 6l80 0c3 0 6-3 6-6l0-48c0-3-3-6-6-6l-74 0 0-36c53-3 96-48 96-102z m-108-176l0 96 12 0 0-96z m-64 0l0 96 12 0 0-96z m128 0l0 96 12 0 0-96z m-64 176l0 32 12 0 0-32z m-48 0l0 32 12 0 0-32z m96 0l0 32 12 0 0-32z m-228-218l52 0 0 132-52 0z m64 180l0-180 244 0 0 180z m256-180l52 0 0 132-52 0z m-332 138c0 3 3 6 6 6l58 0 0 42c0 3 3 6 6 6l256 0c3 0 6-3 6-6l0-42 58 0c3 0 6-3 6-6l0-138 42 0 0-12-480 0 0 12 42 0z"/>
<glyph glyph-name="group" unicode="&#57344;" d="M295 393c27-13 45-40 45-72 0-26-13-50-34-65 53-18 90-68 90-126l0-136-12 0 0 136c0 57-39 106-94 119-2 1-4 3-4 5-1 3 1 5 3 6 24 11 40 35 40 61 0 37-30 67-67 67-37 0-67-30-67-67 0-26 15-50 39-61 3-1 4-3 4-6 0-2-2-4-5-5-55-13-93-62-93-119l0-136-12 0 0 136c0 58 36 108 89 126-21 15-34 39-34 65 0 32 19 59 45 71 3 8 5 17 5 25 0 37-30 67-67 67-37 0-67-30-67-67 0-26 15-50 39-61 3-1 4-3 4-6 0-2-2-4-5-5-55-13-93-62-93-119l0-136-12 0 0 136c0 58 36 108 89 126-21 15-34 39-34 65 0 44 35 79 79 79 43 0 78-35 78-79 0-6 0-13-2-20 6 2 13 3 20 3 7 0 13-1 20-3-2 7-3 14-3 20 0 44 35 79 79 79 43 0 78-35 78-79 0-26-13-50-34-65 53-18 90-68 90-126l0-136-12 0 0 136c0 57-39 106-94 119-2 1-4 3-4 5-1 3 1 5 3 6 24 11 40 35 40 61 0 37-30 67-67 67-37 0-67-30-67-67 0-8 1-17 4-24z"/>
<glyph glyph-name="gts" unicode="&#57345;" d="M351 69c19 16 36 44 46 79l69 0c-27-39-67-69-115-79z m-181 59c17 4 32 11 45 20l7 0c11-36 28-63 47-80-38 9-73 30-99 60z m-122 58c26 10 43 36 43 64 0 29-17 54-43 65 20 30 55 49 94 49 39 0 73-19 94-49-26-11-44-36-44-65 0-28 18-54 44-64-21-30-55-50-94-50-39 0-74 20-94 50z m-7 119c23-8 39-30 39-55 0-24-16-46-39-54-8 16-13 34-13 54 0 20 5 39 13 55z m228 127c-19-16-36-44-47-80l-7 0c-13 10-28 17-45 21 26 30 61 51 99 59z m197-80l-69 0c-10 35-27 63-46 80 48-11 88-40 115-80z m-55-108l85 0c-1-30-9-59-23-84l-72 0c6 25 10 54 10 84z m-95-84l0 84 84 0c-1-30-5-59-11-84z m0-12l69 0c-15-47-40-80-69-83z m-12 0l0-84c-28 4-54 36-70 84z m-48 102c0-20-5-38-14-54-23 8-39 30-39 54 0 25 16 47 39 55 9-16 14-35 14-55z m48 102l-70 0c16 48 42 80 70 84z m12 0l0 84c29-4 54-36 69-84z m84-96l-84 0 0 84 73 0c6-25 10-53 11-84z m96 0l-85 0c0 31-4 59-10 84l72 0c14-25 22-53 23-84z m-265 84l73 0 0-84-37 0c-1 21-7 41-17 58 0 1-1 1-1 2-5 8-11 16-18 23 0 1 0 1 0 1z m0-179c21 22 35 51 36 83l37 0 0-84-73 0c0 0 0 1 0 1z m250-8c17 28 27 62 27 97 0 36-10 69-27 98 0 1 0 2-1 2-34 59-98 98-170 98-60 0-116-27-153-73-5 1-10 1-15 1-46 0-85-24-107-60-1-1-1-1-2-2-11-19-17-41-17-64 0-69 56-126 126-126 5 0 10 1 15 1 37-46 93-73 153-73 72 0 136 40 170 98 1 1 1 2 1 3z m-345 33l12 0 0 128-12 0z"/>
<glyph glyph-name="hail-01" unicode="&#57346;" d="M254 154c0-9-7-16-16-16-9 0-16 7-16 16 0 9 7 16 16 16 9 0 16-7 16-16z m-104-56c0-9-7-16-16-16-9 0-16 7-16 16 0 9 7 16 16 16 9 0 16-7 16-16z m40-56c0-9-7-16-16-16-9 0-16 7-16 16 0 9 7 16 16 16 9 0 16-7 16-16z m8 37c-1 0-2 0-3 0-3 2-4 5-2 8l16 28c1 3 5 4 8 2 2-2 3-5 2-8l-16-27c-1-2-3-3-5-3z m-40 56c-1 0-2 0-3 0-3 2-4 5-2 8l16 28c1 3 5 4 8 2 2-2 3-5 2-8l-16-27c-1-2-3-3-5-3z m-64-112c-1 0-2 0-3 0-3 2-4 5-2 8l16 28c1 3 5 4 8 2 2-2 3-5 2-8l-16-27c-1-2-3-3-5-3z m296 131c0-9-7-16-16-16-9 0-16 7-16 16 0 9 7 16 16 16 9 0 16-7 16-16z m-104-56c0-9-7-16-16-16-9 0-16 7-16 16 0 9 7 16 16 16 9 0 16-7 16-16z m40-56c0-9-7-16-16-16-9 0-16 7-16 16 0 9 7 16 16 16 9 0 16-7 16-16z m8 37c-1 0-2 0-3 0-3 2-4 5-2 8l16 28c1 3 5 4 8 2 2-2 3-5 2-8l-16-27c-1-2-3-3-5-3z m-40 56c-1 0-2 0-3 0-3 2-4 5-2 8l16 28c1 3 5 4 8 2 2-2 3-5 2-8l-16-27c-1-2-3-3-5-3z m-64-112c-1 0-2 0-3 0-3 2-4 5-2 8l16 28c1 3 5 4 8 2 2-2 3-5 2-8l-16-27c-1-2-3-3-5-3z m-134 333c-38 0-68-30-68-68 0-37 28-64 68-64l317 0c46 0 83 36 83 81 0 46-37 83-83 83-11 0-23-1-31-4-3-1-6 0-7 3-19 49-65 81-114 81-62 0-116-52-123-116 0-2-1-4-3-5-1-1-3-1-5 0-11 6-22 9-34 9z m0-144c-46 1-80 33-80 76 0 44 36 80 80 80 11 0 22-2 32-7 10 66 68 119 133 119 52 0 101-33 123-84 9 3 21 4 29 4 52 0 95-43 95-95 0-51-42-92-95-93z"/>
<glyph glyph-name="hail-02" unicode="&#57347;" d="M122 107c-1 0-2 0-3 1-3 1-4 5-2 8l24 41c1 3 5 4 8 2 2-1 3-5 2-8l-24-41c-1-2-3-3-5-3z m56-42c-1 0-2 1-3 1-3 2-4 5-2 8l48 83c1 3 5 4 8 2 2-1 3-5 2-8l-48-83c-1-2-3-3-5-3z m104 42c-1 0-2 0-3 1-3 1-4 5-2 8l24 41c1 3 5 4 8 2 2-1 3-5 2-8l-24-41c-1-2-3-3-5-3z m56-42c-1 0-2 1-3 1-3 2-4 5-2 8l48 83c1 3 5 4 8 2 2-1 3-5 2-8l-48-83c-1-2-3-3-5-3z m-220 10c0-9-7-16-16-16-9 0-16 7-16 16 0 8 7 16 16 16 9 0 16-8 16-16z m56-42c0-9-7-16-16-16-9 0-16 7-16 16 0 9 7 16 16 16 9 0 16-7 16-16z m160 0c0-9-7-16-16-16-9 0-16 7-16 16 0 9 7 16 16 16 9 0 16-7 16-16z m-56 42c0-9-7-16-16-16-9 0-16 7-16 16 0 8 7 16 16 16 9 0 16-8 16-16z m-182 265c-38 0-68-30-68-68 0-37 28-64 68-64l317 0c46 0 83 36 83 81 0 46-37 83-83 83-11 0-23-1-31-4-3-1-6 0-7 3-19 49-65 81-114 81-62 0-116-52-123-116 0-2-1-4-3-5-1-1-3-1-5 0-11 6-22 9-34 9z m0-144c-46 1-80 33-80 76 0 44 36 80 80 80 11 0 22-2 32-7 10 66 68 119 133 119 52 0 101-33 123-84 9 3 21 4 29 4 52 0 95-43 95-95 0-51-42-92-95-93z"/>
<glyph glyph-name="handle" unicode="&#57348;" d="M478 296l-197 0c2 6 3 12 3 19 0 6-1 12-2 17l196 0c10 0 18-8 18-18 0-10-8-18-18-18m-280-56c-41 0-74 34-74 75 0 41 33 74 74 74 41 0 74-33 74-74 0-41-33-75-74-75m280 104c16 0 30-13 30-30 0-16-14-30-30-30l-200 0c-13-32-44-55-80-55-48 0-86 38-86 86 0 47 38 85 86 85 37 0 68-23 80-56z m-280-260c-3 0-6 3-6 6l0 34c-6 2-10 8-10 15 0 9 7 16 16 16 9 0 16-7 16-16 0-7-5-13-10-15l0-34c0-3-3-6-6-6z m170-68l0 218 12 0 0-224c0-3-3-6-6-6l-352 0c-3 0-6 3-6 6l0 480c0 3 3 6 6 6l352 0c3 0 6-3 6-6l0-96-12 0 0 90-340 0 0-468z"/>
<glyph glyph-name="headphones" unicode="&#57349;" d="M448 42c0-14-12-26-26-26-15 0-26 12-26 26l0 128c0 15 11 26 26 26 14 0 26-11 26-26z m12 0c0-21-17-38-38-38-21 0-38 17-38 38l0 128c0 21 17 38 38 38 21 0 38-17 38-38z m-454 58c-3 0-6 3-6 6l0 144c0 136 110 246 246 246 135 0 246-110 246-246l0-144c0-3-3-6-6-6-3 0-6 3-6 6l0 144c0 129-105 234-234 234-129 0-234-105-234-234l0-144c0-3-3-6-6-6z m90-58l0 128c0 15-12 26-26 26-15 0-26-11-26-26l0-128c0-14 11-26 26-26 14 0 26 12 26 26z m12 0c0-21-17-38-38-38-21 0-38 17-38 38l0 128c0 21 17 38 38 38 21 0 38-17 38-38z"/>
<glyph glyph-name="headquarters" unicode="&#57350;" d="M326 16l0 196 26 0 0 12-26 0 0 127 84-56 0-39-58 0 0-12 58 0 0-148-26 0 0-12 26 0 0-68z m-224 0l0 36 58 0 0 12-58 0 0 148 26 0 0 12-26 0 0 116 58 0 0 12-58 0 0 127 84-56 0-39-26 0 0-12 26 0 0-276-26 0 0-12 26 0 0-68z m96 112l116 0 0 148-116 0z m0-112l116 0 0 52-116 0z m0 64l116 0 0 36-116 0z m224 218c0 2-1 4-3 5l-96 64c-2 1-4 1-6 0-2-1-3-3-3-5l0-74-116 0 0 138c0 2-1 4-3 5l-96 64c-2 1-4 1-6 0-2-1-3-3-3-5l0-474-74 0 0-12 480 0 0 12-74 0z m-294 10l32 0 0 12-32 0z m224-256l32 0 0 12-32 0z"/>
<glyph glyph-name="heart" unicode="&#57351;" d="M247 398l-3 3c-6 5-17 15-17 23 0 9 6 14 16 14 8 0 19-11 23-18l2-2c-8-6-15-12-21-20z m-84-22c0 0 0 0 0 0l0 20c0 65 46 88 90 88 34 0 59-24 70-48-16-1-31-5-45-12l-2 3c-4 5-17 23-33 23-16 0-27-11-27-26 0-15 16-28 20-32l4-3c-5-8-8-17-11-26-17 7-42 13-66 13z m323 48l-157 0c-52 0-91-36-91-85l0-72c0-40-27-62-53-83-27-22-53-43-53-84 0-3-2-6-5-6-4 0-6 3-6 6 0 46 29 70 56 93 25 20 49 39 49 74l0 72c0 4 0 9 1 13-16 6-41 12-64 12-80 0-135-59-135-144 0-22 8-53 29-83 1-1 2-2 2-3 15-20 34-40 60-58 2 0 3-1 4-2 50-33 123-58 225-58 54 0 88 26 88 67 0 70-46 207-144 280-6-9-10-20-10-36l0-9c21-19 41-45 52-65 2-3 1-6-2-8-1 0-2-1-3-1-2 0-4 2-5 4-7 14-23 35-42 54l0-52c0-3-2-6-5-6-3 0-6 3-6 6l0 77c0 21 5 36 15 47 0 0 0 0 0 0 0 0 0 0 0 0 11 11 27 16 48 16l152 0c3 0 6-3 6-6 0-3-3-5-6-5l-152 0c-14 0-25-3-34-8 111-84 147-229 147-288 0-47-39-79-99-79-100 0-173 24-224 56l0-50c0-3-3-6-6-6-3 0-6 3-6 6l0 57c-21 15-38 31-52 48l0-105c0-3-3-6-6-6-3 0-6 3-6 6l0 120c-22 33-32 66-32 90 0 41 12 76 32 102l0 168c0 3 3 6 6 6 3 0 6-3 6-6l0-155c14 15 32 26 52 33l0 122c0 3 3 6 6 6 3 0 6-3 6-6l0-119c8 2 18 4 27 4l0 21c0 61 40 100 102 100 41 0 71-30 83-60l150 0c3 0 6-3 6-6 0-3-3-6-6-6z m-343-119c-45-8-67-31-71-70-1-30 4-52 15-72 1-3 0-6-2-8-1 0-2-1-3-1-2 0-4 2-5 3-12 23-17 47-16 78 4 46 30 72 80 81 3 0 6-2 6-5 1-3-1-6-4-6z m24-217c1 3 5 4 7 2 61-32 136-32 172-32l6 0c3 0 5-2 5-6 0-3-2-5-5-5l-6 0c-2 0-5 0-7 0-40 0-111 1-170 33-3 2-4 5-2 8z"/>
<glyph glyph-name="heart-1" unicode="&#57352;" d="M144 452l0 0c-31 0-61-12-82-34-22-21-34-51-34-82 0-31 12-60 34-82l200-200 200 200c22 22 34 51 34 82 0 31-12 61-34 82-22 22-51 34-82 34l0 0c-31 0-60-12-82-34l-32-31c-2-3-6-3-8 0l-32 31c-22 22-51 34-82 34m118-412c-2 0-3 1-4 2l-205 204c-24 24-37 56-37 90 0 34 13 67 37 91 24 24 56 37 91 37l0 0c34 0 66-13 90-37l28-28 27 28c25 24 57 37 91 37l0 0c34 0 66-13 90-37 24-24 37-57 37-91 0-34-13-66-37-90l-204-204c-1-1-3-2-4-2"/>
<glyph glyph-name="heart-recycle" unicode="&#57353;" d="M464 265c-8 104-95 187-202 187-94 0-175-63-197-155l-11 3c23 96 108 164 208 164 113 0 206-89 213-200l25 24 8-8-34-34c-1-1-2-2-4-2-1 0-3 1-4 2l-34 34 8 8z m-415-28l-25-25-8 8 34 34c2 2 6 2 8 0l34-34-8-8-24 24c8-105 95-188 202-188 94 0 175 64 197 156l11-3c-23-97-108-165-208-165-113 0-206 89-213 201z m162 88l0 0c-12 0-24-5-32-14-9-9-14-20-14-33 0-12 5-24 14-32l83-83 83 83c9 8 13 20 14 32 0 12-5 24-14 33-18 18-48 18-66 0l-13-13c-2-3-6-3-8 0l-14 13c-9 9-20 14-33 14z m51-176c-2 0-3 0-4 1l-88 88c-10 10-16 25-16 40-1 16 5 30 16 41 11 11 26 17 41 17l0 0c16 0 30-6 41-17l10-9 9 9c22 22 60 22 82 0 11-11 17-26 17-42 0-15-6-29-17-39l-87-88c-1-1-3-1-4-1z"/>
<glyph glyph-name="home-01" unicode="&#57354;" d="M220 22l84 0 0 116-84 0z m-172 202l12 0 0-202 148 0 0 122c0 3 3 6 6 6l96 0c3 0 6-3 6-6l0-122 148 0 0 202 12 0 0-202 26 0 0-12-480 0 0 12 26 0z m-19 54l465 0-35 132-394 0z m478-5c1-1 0-3-1-5-1-1-2-2-4-2l-480 0c-2 0-4 1-5 2-1 2-1 4-1 5l39 144c0 3 3 5 5 5l36 0 0 74 12 0 0-74 355 0c3 0 5-2 6-5z m-347-97l0 48 12 0 0-48z m256 0l0 48 12 0 0-48z m-320 0l0 48 12 0 0-48z m256 0l0 48 12 0 0-48z"/>
<glyph glyph-name="home-02" unicode="&#57355;" d="M218 16l84 0 0 180-84 0z m-172 186l12 0 0-186 148 0 0 186c0 3 3 6 6 6l96 0c3 0 6-3 6-6l0-186 148 0 0 186 12 0 0-186 26 0 0-12-480 0 0 12 26 0z m428 83l30-31-8-8-236 236-236-236-8 8 240 240c2 3 6 3 8 0l198-198 0 66 12 0z m-262-29l96 0 0-12-96 0z"/>
<glyph glyph-name="home-03" unicode="&#57356;" d="M138 68l244 0 0-52-244 0z m244 128l0-52-244 0 0 52z m0-116l-244 0 0 52 244 0z m-336 122l12 0 0-186 68 0 0 186c0 3 3 6 6 6l256 0c3 0 6-3 6-6l0-186 68 0 0 186 12 0 0-186 26 0 0-12-480 0 0 12 26 0z m428 160l0-77 30-31-8-8-236 236-236-236-8 8 240 240c2 3 6 3 8 0l198-198 0 66z m-342-106l256 0 0-12-256 0z"/>
<glyph glyph-name="home-wifi" unicode="&#57357;" d="M24 246l-8 8 240 240c2 3 6 3 8 0l198-198 0 66 12 0 0-77 30-31-8-8-236 236z m22-44l12 0 0-186 404 0 0 186 12 0 0-186 26 0 0-12-480 0 0 12 26 0z m356-1l-8-9c-36 34-84 52-134 52-50 0-97-18-134-52l-8 9c39 35 89 55 142 55 53 0 103-20 142-55z m-34-34l-7-9c-28 25-64 38-101 38-37 0-73-13-101-38l-7 9c30 26 68 41 108 41 40 0 78-15 108-41z m-175-43l-7 9c21 17 47 27 74 27 27 0 53-10 74-27l-7-9c-19 16-43 24-67 24-24 0-48-8-67-24z"/>
<glyph glyph-name="hr-01" unicode="&#57358;" d="M388 156l117-67-6-10-117 67c-37-60-102-93-169-93-33 0-67 8-98 26-95 55-127 176-73 270 55 95 176 127 271 73 45-27 78-70 92-121 13-49 7-100-17-145z m-68-59l0 18c0 49-34 92-81 103-3 1-5 3-5 5 0 3 1 5 4 6 21 9 34 30 34 53 0 33-26 59-58 59-33 0-59-26-59-59 0-23 14-44 35-53 2-1 3-3 3-6 0-2-2-4-4-5-48-11-82-54-82-103l0-18c5-3 9-5 14-8 64-37 142-31 199 8z m-224 9l0 9c0 50 31 94 77 110-18 13-29 34-29 57 0 39 31 70 70 70 38 0 70-31 70-70 0-23-11-44-30-57 46-16 77-60 77-110l0-9c18 14 32 31 44 51 25 43 31 93 19 141-13 49-44 89-87 114-29 16-61 24-93 24-64 0-127-33-162-93-46-80-26-180 44-237z"/>
<glyph glyph-name="hr-02" unicode="&#57359;" d="M276 48c105 8 188 95 188 202 0 94-64 175-156 197l3 11c97-23 165-108 165-208 0-113-89-206-201-213l25-25-8-8-38 38 38 38 8-8z m-28 415l-24 25 8 8 38-38-38-38-8 8 23 24c-104-8-187-95-187-202 0-94 63-175 155-197l-3-11c-96 23-164 108-164 208 0 113 89 206 200 213z m8-144c2 1 4 1 6 1 2 0 4 0 6-1 0 2 0 4 0 7 0 23 18 42 42 42 23 0 42-19 42-42 0-13-5-24-14-32 25-11 42-36 42-64l0-60-12 0 0 60c0 27-18 50-45 57-2 0-4 2-4 5 0 2 1 4 3 5 11 5 19 16 19 29 0 16-14 30-31 30-17 0-31-14-31-30 0-4 1-8 2-11 14-7 23-21 23-37 0-13-5-24-14-32 25-11 42-36 42-64l0-60-12 0 0 60c0 27-18 50-45 57-2 0-4 2-4 5 0 2 1 4 3 5 11 5 19 16 19 29 0 16-14 30-31 30-17 0-31-14-31-30 0-13 7-24 18-29 3-1 4-3 4-5-1-3-2-5-5-5-26-7-44-30-44-57l0-60-12 0 0 60c0 28 17 53 42 64-9 8-14 19-14 32 0 16 9 30 23 37 1 3 2 7 2 11 0 16-14 30-31 30-17 0-31-14-31-30 0-13 7-24 18-29 3-1 4-3 4-5-1-3-2-5-5-5-26-7-44-30-44-57l0-60-12 0 0 60c0 28 17 53 42 64-9 8-14 19-14 32 0 23 19 42 42 42 23 0 42-19 42-42 0-3 0-5 0-7z"/>
<glyph glyph-name="hr-03" unicode="&#57360;" d="M456 366l-33 9 3 11 52-14-14-52-11 3 9 33-58-33-5 10z m6-226l-9 33 11 3 14-52-52-14-3 11 33 9-57 33 5 10z m-398 0l57 33 6-10-57-33 33-9-3-11-52 14 14 52 11-3z m6 226l57-33-6-10-57 33 9-33-11-3-14 52 52 14 3-11z m187 108l-24-24-8 8 38 38 38-38-8-8-24 24 0-66-12 0z m36-466l-12 0 0 112c0 2 2 4 4 5 14 5 28 16 28 33l0 65c0 28-22 51-50 51-28 0-50-23-50-52l0-64c0-17 14-28 28-33 2-1 4-3 4-5l0-112-12 0 0 108c-20 8-32 24-32 42l0 64c0 36 27 64 62 64 35 0 62-28 62-63l0-65c0-18-13-34-32-42z m-30 362c-15 0-26-12-26-26 0-15 11-26 26-26 14 0 26 11 26 26 0 14-12 26-26 26z m0-64c-21 0-38 17-38 38 0 21 17 38 38 38 21 0 38-17 38-38 0-21-17-38-38-38z"/>
<glyph glyph-name="hr-04" unicode="&#57361;" d="M369-6l-11 0 0 12c0 52-35 97-86 109-2 1-4 3-4 5-1 3 1 5 3 6 22 10 37 32 37 57 0 34-28 61-62 61-34 0-62-27-62-61 0-25 14-47 36-57 3-1 4-3 4-6 0-2-2-4-5-5-50-12-85-57-85-109l0-12-12 0 0 12c0 53 33 99 82 117-20 13-32 35-32 60 0 40 33 73 74 73 40 0 73-33 73-73 0-25-12-47-31-60 49-18 81-64 81-117z m-123 490c-32 0-58-26-58-58 0-32 26-58 58-58 32 0 58 26 58 58 0 32-26 58-58 58z m0-128c-39 0-70 32-70 70 0 39 31 70 70 70 38 0 70-31 70-70 0-38-32-70-70-70z m-176 0c-32 0-58-26-58-58 0-32 26-58 58-58 32 0 58 26 58 58 0 32-26 58-58 58z m0-128c-39 0-70 32-70 70 0 39 31 70 70 70 38 0 70-31 70-70 0-38-32-70-70-70z m352 128c-32 0-58-26-58-58 0-32 26-58 58-58 32 0 58 26 58 58 0 32-26 58-58 58z m0-128c-39 0-70 32-70 70 0 39 31 70 70 70 38 0 70-31 70-70 0-38-32-70-70-70z"/>
<glyph glyph-name="hurricane-01" unicode="&#57362;" d="M246 112c-76 0-138 62-138 138 0 76 62 138 138 138 76 0 138-62 138-138 0-76-62-138-138-138m0 288c-51 0-96-25-123-64 20 55 59 111 126 149 2 2 3 5 2 8-2 3-5 4-8 2-109-62-147-170-147-245 0-82 67-150 150-150 50 0 95 26 122 64-19-54-58-111-125-149-3-1-4-5-2-8 1-1 3-3 5-3 1 0 2 1 3 1 108 62 147 171 147 245 0 83-68 150-150 150"/>
</font>
</defs>
</svg>
